<svg width="322" height="249" viewBox="0 0 322 249" fill="none" xmlns="http://www.w3.org/2000/svg">
<path d="M140.611 131H41.3885C40.0947 131 39 130.367 39 129.618V29.3818C39 28.6333 40.0947 28 41.3885 28H140.611C141.905 28 143 28.6333 143 29.3818V129.676C143 130.367 141.905 131 140.611 131Z" fill="#D1D1D8"/>
<path d="M66 50H46V53H66V50Z" fill="white"/>
<path d="M66 56H46V59H66V56Z" fill="white"/>
<path d="M101 38H81V41H101V38Z" fill="white"/>
<path d="M136 33H46V36H136V33Z" fill="white"/>
<path d="M136 65H56V68H136V65Z" fill="white"/>
<path d="M136 70H46V73H136V70Z" fill="white"/>
<path d="M136 75H46V78H136V75Z" fill="white"/>
<path d="M136 81H46V84H136V81Z" fill="white"/>
<path d="M126 86H46V89H126V86Z" fill="white"/>
<path d="M136 96H56V99H136V96Z" fill="white"/>
<path d="M136 101H46V104H136V101Z" fill="white"/>
<path d="M136 106H46V109H136V106Z" fill="white"/>
<path d="M136 112H46V115H136V112Z" fill="white"/>
<path d="M126 117H46V120H126V117Z" fill="white"/>
<path d="M321 247L1.00001 247" stroke="#B2B5C1" stroke-width="2" stroke-miterlimit="10" stroke-linecap="round"/>
<rect x="24" y="113" width="75" height="75" rx="4" fill="#7DDCF4" stroke="#00A1C0" stroke-width="4" stroke-miterlimit="10"/>
<rect opacity="0.8" x="40.3042" y="129.304" width="41.3043" height="41.3043" rx="4" fill="white"/>
<rect x="43.5652" y="132.565" width="34.7826" height="34.7826" rx="2" fill="#00A1C0"/>
<rect x="46.8262" y="124.957" width="2.17391" height="4.34783" fill="#00A1C0"/>
<rect x="53.3479" y="124.956" width="2.17391" height="4.34783" fill="#00A1C0"/>
<rect x="59.8694" y="124.956" width="2.17391" height="4.34783" fill="#00A1C0"/>
<rect x="66.3911" y="124.956" width="2.17391" height="4.34783" fill="#00A1C0"/>
<rect x="72.9131" y="124.956" width="2.17391" height="4.34783" fill="#00A1C0"/>
<rect x="35.9568" y="164.087" width="2.17391" height="4.34783" transform="rotate(-90 35.9568 164.087)" fill="#00A1C0"/>
<rect x="35.9561" y="157.565" width="2.17391" height="4.34783" transform="rotate(-90 35.9561 157.565)" fill="#00A1C0"/>
<rect x="35.9561" y="151.043" width="2.17391" height="4.34783" transform="rotate(-90 35.9561 151.043)" fill="#00A1C0"/>
<rect x="35.9561" y="144.522" width="2.17391" height="4.34783" transform="rotate(-90 35.9561 144.522)" fill="#00A1C0"/>
<rect x="35.9561" y="138" width="2.17391" height="4.34783" transform="rotate(-90 35.9561 138)" fill="#00A1C0"/>
<rect x="81.6091" y="164.087" width="2.17391" height="4.34783" transform="rotate(-90 81.6091 164.087)" fill="#00A1C0"/>
<rect x="81.6084" y="157.565" width="2.17391" height="4.34783" transform="rotate(-90 81.6084 157.565)" fill="#00A1C0"/>
<rect x="81.6084" y="151.043" width="2.17391" height="4.34783" transform="rotate(-90 81.6084 151.043)" fill="#00A1C0"/>
<rect x="81.6084" y="144.522" width="2.17391" height="4.34783" transform="rotate(-90 81.6084 144.522)" fill="#00A1C0"/>
<rect x="81.6084" y="138" width="2.17391" height="4.34783" transform="rotate(-90 81.6084 138)" fill="#00A1C0"/>
<rect x="46.8262" y="170.609" width="2.17391" height="4.34783" fill="#00A1C0"/>
<rect x="53.3479" y="170.609" width="2.17391" height="4.34783" fill="#00A1C0"/>
<rect x="59.8694" y="170.609" width="2.17391" height="4.34783" fill="#00A1C0"/>
<rect x="66.3911" y="170.609" width="2.17391" height="4.34783" fill="#00A1C0"/>
<rect x="72.9131" y="170.609" width="2.17391" height="4.34783" fill="#00A1C0"/>
<path d="M156.27 150H87.7303C85.1135 150 83 147.886 83 145.27V76.7303C83 74.1135 85.1135 72 87.7303 72H156.27C158.886 72 161 74.1135 161 76.7303V145.27C161 147.886 158.886 150 156.27 150Z" fill="#7DDCF4" stroke="#00A1C0" stroke-width="4" stroke-miterlimit="10"/>
<path opacity="0.4" d="M105 117H99V139H105V117Z" fill="white"/>
<path opacity="0.4" d="M115 107H109V139H115V107Z" fill="white"/>
<path opacity="0.4" d="M125 113H119V139H125V113Z" fill="white"/>
<path opacity="0.4" d="M135 104H129V139H135V104Z" fill="white"/>
<path opacity="0.4" d="M145 91H139V139H145V91Z" fill="white"/>
<path opacity="0.2" d="M151 82H93V139H151V82Z" fill="white"/>
<path opacity="0.8" d="M105 117H99V132H105V117Z" fill="white"/>
<path opacity="0.8" d="M115 107H109V129H115V107Z" fill="white"/>
<path opacity="0.8" d="M125 113H119V131H125V113Z" fill="white"/>
<path opacity="0.8" d="M135 104H129V128H135V104Z" fill="white"/>
<path opacity="0.8" d="M145 90H139V123H145V90Z" fill="white"/>
<path d="M123 197L143 207.95V246" stroke="#B2B5C1" stroke-width="2" stroke-miterlimit="10" stroke-linecap="round"/>
<circle cx="121" cy="196" r="5" fill="#00A1C0"/>
<path d="M202 197L182 207.95V246" stroke="#B2B5C1" stroke-width="2" stroke-miterlimit="10" stroke-linecap="round"/>
<circle r="5" transform="matrix(-1 0 0 1 202 197)" fill="#00A1C0"/>
<path d="M209.5 217.5L195 224.73V246" stroke="#B2B5C1" stroke-width="2" stroke-miterlimit="10" stroke-linecap="round"/>
<circle r="5" transform="matrix(-1 0 0 1 210 217)" fill="#00A1C0"/>
<path d="M131 247V230.746L117.5 223H102.5" stroke="#B2B5C1" stroke-width="2" stroke-miterlimit="10" stroke-linecap="round"/>
<circle cx="102" cy="223" r="5" fill="#00A1C0"/>
<path d="M141 183V195.69L156 203.69V247" stroke="#B2B5C1" stroke-width="2" stroke-miterlimit="10" stroke-linecap="round"/>
<circle cx="141" cy="183" r="5" fill="#00A1C0"/>
<path d="M169 247L169 167" stroke="#B2B5C1" stroke-width="2" stroke-miterlimit="10" stroke-linecap="round"/>
<circle cx="169" cy="166" r="5" fill="#00A1C0"/>
<path d="M82 247L82 230" stroke="#B2B5C1" stroke-width="2" stroke-miterlimit="10" stroke-linecap="round"/>
<circle cx="82" cy="227" r="5" fill="#00A1C0"/>
<path d="M66 247L66 215L52 208.5" stroke="#B2B5C1" stroke-width="2" stroke-miterlimit="10" stroke-linecap="round"/>
<circle cx="53" cy="209" r="5" fill="#00A1C0"/>
<path d="M223.27 129H154.73C152.114 129 150 126.886 150 124.27V55.7303C150 53.1135 152.114 51 154.73 51H223.27C225.886 51 228 53.1135 228 55.7303V124.27C228 126.886 225.886 129 223.27 129Z" fill="#7DDCF4" stroke="#00A1C0" stroke-width="4" stroke-miterlimit="10"/>
<path opacity="0.2" d="M218 61H160V118H218V61Z" fill="white"/>
<path opacity="0.2" d="M160 118L172.486 94.5885L187.087 96.8995L198.063 82.6316L209.24 84.6411L218 76V118H160Z" fill="white"/>
<path opacity="0.4" d="M160 118L174.802 105.764L179.635 109.708L194.941 96.7641L202.392 104.146L218 91V118H160Z" fill="white"/>
<path opacity="0.8" d="M160 118L188.799 114.5L198.163 109.8L208.233 110.8L218 106V118H160Z" fill="white"/>
<path d="M207.8 79.5H139.7C137.1 79.5 135 77.4 135 74.8V6.7C135 4.1 137.1 2 139.7 2H207.8C210.4 2 212.5 4.1 212.5 6.7V74.8C212.5 77.4 210.4 79.5 207.8 79.5Z" fill="#7DDCF4" stroke="#00A1C0" stroke-width="4" stroke-miterlimit="10"/>
<circle opacity="0.2" cx="173.7" cy="41" r="26" fill="white"/>
<path opacity="0.4" d="M199.7 41C199.7 36.6142 198.591 32.2997 196.475 28.458C194.36 24.6162 191.306 21.3721 187.6 19.0274C183.894 16.6827 179.654 15.3138 175.277 15.0478C170.899 14.7819 166.525 15.6277 162.562 17.5065C158.599 19.3853 155.176 22.2361 152.611 25.7935C150.046 29.3509 148.422 33.4994 147.891 37.853C147.361 42.2065 147.94 46.6235 149.575 50.6931C151.21 54.7627 153.848 58.3526 157.243 61.1286L173.7 41H199.7Z" fill="white"/>
<path opacity="0.25" d="M199.7 41C199.7 34.461 197.236 28.162 192.799 23.3585C188.363 18.5551 182.279 15.5998 175.76 15.0817L173.7 41H199.7Z" fill="white"/>
<path opacity="0.25" d="M199.7 41C199.7 34.5101 197.273 28.2548 192.896 23.4633L173.7 41H199.7Z" fill="white"/>
<path opacity="0.6" d="M199.7 41C199.7 34.461 197.236 28.162 192.799 23.3585C188.363 18.5551 182.279 15.5998 175.76 15.0817L173.7 41H199.7Z" fill="white"/>
<path d="M287.114 72.9934C287.114 72.9934 296.911 90.1924 297.637 94.2564C298.363 98.3203 289.292 124.663 289.292 124.663C289.292 124.663 291.323 131.557 289.146 132.718C286.969 133.88 283.196 136.274 282.615 134.242C282.035 132.21 282.615 125.679 282.615 125.679L284.284 124.3C284.284 124.3 290.09 96.7963 290.09 95.8529C290.09 94.9095 279.567 78.7264 279.567 78.7264L287.114 72.9934Z" fill="white" stroke="#626680" stroke-width="2" stroke-miterlimit="10" stroke-linecap="round"/>
<path d="M251.047 240.63L245.168 241.283L244.878 237.872L244.08 228.583L249.958 227.93L250.829 238.235L251.047 240.63Z" fill="#E4897B"/>
<path d="M280.438 239.904H274.705L274.632 238.598V238.453L274.342 230.18V230.035L274.27 226.842H279.93L280.438 239.904Z" fill="#E4897B"/>
<path d="M293.719 81.1937L283.922 87.8701L283.704 87.6524L277.753 79.8875L274.125 75.0978L279.495 60.4387C285.663 62.8335 293.719 81.1937 293.719 81.1937Z" fill="white" stroke="#626680" stroke-width="2" stroke-miterlimit="10" stroke-linecap="round"/>
<path d="M283.704 87.6524L277.753 79.8874L282.543 72.5579C282.543 72.5579 285.446 80.1051 283.704 87.6524Z" fill="#E4E4EA"/>
<path d="M273.907 239.541H280.873C281.091 239.541 281.309 239.686 281.381 239.904L282.543 244.984C282.615 245.419 282.325 245.855 281.889 246C281.817 246 281.744 246 281.672 246C279.422 246 277.825 245.855 274.995 245.855C273.254 245.855 268.029 246 265.634 246C263.239 246 262.949 243.605 263.892 243.387C268.319 242.444 271.584 241.138 273.036 239.832C273.181 239.686 273.544 239.541 273.907 239.541Z" fill="#00AF60"/>
<path d="M244.516 239.396H251.482C251.7 239.396 251.918 239.541 251.99 239.759L253.151 244.839C253.224 245.274 252.934 245.71 252.498 245.855C252.426 245.855 252.353 245.855 252.281 245.855C250.031 245.855 248.434 245.71 245.604 245.71C243.862 245.71 238.637 245.855 236.243 245.855C233.848 245.855 233.558 243.46 234.501 243.242C238.928 242.299 242.193 240.993 243.645 239.686C243.79 239.469 244.153 239.396 244.516 239.396Z" fill="#00AF60"/>
<path d="M243.5 237.001H251.846C251.846 237.001 251.193 164.939 260.191 140.628C260.845 148.684 261.57 157.029 262.223 163.996C262.659 168.278 263.094 171.979 263.53 174.809C266.142 192.951 272.819 237.727 272.819 237.727H281.164C281.164 237.727 280.148 194.838 279.205 176.986C278.116 157.61 277.681 115.084 277.608 111.455H247.347C244.444 126.695 237.042 187.654 243.5 237.001Z" fill="#407BFF"/>
<path d="M243.88 240.267H252.225C252.225 240.267 251.282 164.939 260.281 140.628C260.934 148.684 261.659 157.029 262.313 163.996C262.748 168.278 262.949 175.027 263.384 177.857C265.997 195.999 272.673 240.775 272.673 240.775L281.889 239.904C281.889 239.904 280.237 194.838 279.294 176.986C278.205 157.61 277.77 115.084 277.697 111.455H247.436C244.533 126.695 237.421 190.919 243.88 240.267Z" fill="#626680"/>
<path d="M266.65 170.237C266.65 170.821 267.04 184.472 267.82 189.542C268.601 194.612 276.015 233.417 276.015 233.417" stroke="#B2B5C1" stroke-width="2" stroke-miterlimit="10" stroke-linecap="round" stroke-dasharray="6 6"/>
<path d="M246.45 140.483C245.823 148.92 243.337 173.089 243.43 177.945C243.501 181.59 245.346 215.245 246.437 227.344" stroke="#B2B5C1" stroke-width="2" stroke-miterlimit="10" stroke-linecap="round" stroke-dasharray="6 6"/>
<path d="M272.746 59.3502C269.988 61.8901 263.166 60.9467 263.166 60.9467C263.166 60.9467 258.885 59.7856 259.828 58.4794C262.296 58.0439 263.529 56.8828 264.037 55.4314C264.327 54.5606 264.4 53.5446 264.255 52.6012C264.182 52.0932 264.11 51.5126 264.037 51.0047L272.455 44.6911C271.367 48.8276 269.988 56.3748 272.746 59.3502Z" fill="white" stroke="#626680" stroke-width="2" stroke-miterlimit="10" stroke-linecap="round"/>
<path d="M260.621 47.1143C260.694 47.4046 260.766 47.6949 260.839 47.9126C261.419 49.5091 262.435 50.7428 263.669 51.6862C264.032 51.9039 264.322 52.1216 264.685 52.3393C266.572 53.2828 268.822 53.5005 270.854 52.6296C271.652 52.2668 272.523 51.7588 273.248 51.0331C276.079 48.1303 276.006 44.7921 276.369 39.2042C276.441 37.9705 276.296 36.7368 275.788 35.6483C274.119 31.7295 269.62 29.8427 265.701 31.5118C260.186 33.6163 259.387 42.0344 260.621 47.1143Z" fill="#626680"/>
<path d="M278.987 117.479L244.371 115.81C244.371 115.81 245.387 96.7237 248.943 78.2183C249.959 73.1385 251.12 68.0586 252.572 63.4141C253.37 60.8016 254.241 58.4068 255.184 56.1571C255.184 56.1571 276.665 57.8988 281.091 61.3096C285.518 64.7929 278.769 99.8442 278.987 117.479Z" fill="white" stroke="#626680" stroke-width="2" stroke-miterlimit="10" stroke-linecap="round"/>
<path d="M256.78 63.269C256.78 63.269 254.531 75.3156 249.233 79.8875C250.249 74.8076 252.136 67.478 253.587 62.8336L256.78 63.269Z" fill="#E4E4EA"/>
<path d="M250.653 56.6097C250.653 56.6097 229.173 52.183 226.125 51.0944C223.077 49.9333 207.111 34.6936 207.111 34.6936L203.628 37.3061C203.628 37.3061 215.602 52.8361 221.553 57.3354C227.576 61.8348 248.476 68.5838 248.476 68.5838L250.653 56.6097Z" fill="white" stroke="#626680" stroke-width="2" stroke-miterlimit="10" stroke-linecap="round"/>
<path d="M207.184 34.621C205.442 32.6616 199.201 28.38 198.257 28.0171C197.314 27.6543 196.008 33.1696 196.298 33.8953C196.588 34.621 199.636 36.145 201.16 36.3627C202.684 36.5804 204.353 38.1043 204.353 38.1043L207.184 34.621Z" fill="white" stroke="#626680" stroke-width="2" stroke-miterlimit="10" stroke-linecap="round"/>
<path d="M255.837 56.3748L237.114 52.9641L236.606 65.8815L250.612 71.542C250.612 71.542 259.465 62.6884 255.837 56.3748Z" fill="white" stroke="#626680" stroke-width="2" stroke-miterlimit="10" stroke-linecap="round"/>
<path d="M257.937 40.1478C257.937 40.1478 261.497 46.6781 268.346 46.1829C275.195 45.6879 277.583 42.13 278.034 41.4994C278.485 40.8688 277.106 29.2935 268.832 28.6781C262.633 28.2168 258.973 33.0766 257.937 40.1478Z" fill="#FFD345"/>
<path d="M277.029 40.8342L277.062 40.7889C277.531 40.157 278.443 40.0104 279.1 40.462C279.757 40.9135 279.909 41.7913 279.44 42.4235L279.412 42.4619C277.233 45.4168 273.383 47.2283 268.571 47.5633C268.276 47.5839 267.986 47.5939 267.702 47.5939C260.508 47.5939 256.828 41.2454 256.669 40.9651C256.282 40.2829 256.544 39.4289 257.253 39.0574C257.961 38.6858 258.847 38.9367 259.234 39.6167" fill="#FFD345"/>
<path d="M277.029 40.8342L277.062 40.7889C277.531 40.157 278.443 40.0104 279.1 40.462C279.757 40.9135 279.909 41.7913 279.44 42.4235L279.412 42.4619C277.233 45.4168 273.383 47.2283 268.571 47.5633C268.276 47.5839 267.986 47.5939 267.702 47.5939C260.508 47.5939 256.828 41.2454 256.669 40.9651C256.282 40.2829 256.544 39.4289 257.253 39.0574C257.961 38.6858 258.847 38.9367 259.234 39.6167" stroke="#606782" stroke-width="2" stroke-miterlimit="10" stroke-linecap="round"/>
<path d="M265.278 43.4435C267.485 44.2781 272.237 44.0907 274.836 41.7651" stroke="#606782" stroke-width="2" stroke-miterlimit="10" stroke-linecap="round"/>
</svg>
