<svg width="658" height="83" viewBox="0 0 658 83" fill="none" xmlns="http://www.w3.org/2000/svg">
<path d="M0.570801 81.1403V1.14233H80.1416V81.1403H0.570801ZM16.946 13.5938V70.9906L66.8376 41.653L16.946 13.5938Z" fill="#111111"/>
<path d="M197.183 81.1401H166.444V1.33105H197.374C220.286 1.33105 234.032 19.4693 234.032 42.5714C234.032 65.6743 221.812 81.1401 197.183 81.1401ZM195.847 14.8873H183.246V68.7294H196.802C214.748 68.7294 217.421 53.4561 217.231 41.8084C217.231 32.6433 212.838 14.8873 195.847 14.8873Z" fill="#111111"/>
<path d="M151.225 81.1401L145.115 63.3848H115.712L110.367 81.1401H94.3281L121.249 1.14258H137.478L167.644 81.1401H151.225ZM139.52 47.1551L129.459 17.9447L120.634 47.1551L119.913 52.1196H140.242L139.52 47.1551Z" fill="#111111"/>
<path d="M255.375 1.14258H238.382V81.1401H255.375V1.14258Z" fill="#111111"/>
<path d="M286.19 76.8514C282.435 73.1727 280.557 68.2603 280.557 62.1141C280.557 61.3568 280.633 60.0671 280.785 58.245L284.881 24.788C285.328 20.3181 286.851 16.023 289.32 12.2699C291.677 8.69136 294.909 5.77337 298.708 3.7919C302.664 1.75192 307.061 0.716287 311.511 0.776268C318.035 0.776268 323.194 2.59707 326.988 6.23867C330.781 9.88027 332.677 14.7737 332.678 20.9188C332.678 21.6781 332.602 22.9678 332.449 24.788L328.354 58.245C327.696 64.9519 324.573 71.1763 319.59 75.7132C314.631 80.1629 308.157 82.5452 301.496 82.371C295.047 82.371 289.945 80.5311 286.19 76.8514ZM312.762 68.9422C315.563 66.2219 317.3 62.5892 317.656 58.7005L321.866 24.5604C321.955 23.8051 321.993 23.0448 321.981 22.2845C322.135 19.0651 321.009 15.9153 318.851 13.5218C317.75 12.4057 316.426 11.5348 314.965 10.9661C313.504 10.3973 311.939 10.1436 310.373 10.2215C308.53 10.1776 306.698 10.5079 304.986 11.1925C303.275 11.877 301.72 12.9017 300.415 14.2044C297.651 17.004 295.908 20.6512 295.465 24.5604L291.367 58.7006C291.276 59.5318 291.238 60.368 291.254 61.204C291.173 62.7556 291.409 64.3074 291.947 65.765C292.485 67.2225 293.314 68.5552 294.384 69.682C295.492 70.7447 296.806 71.5702 298.244 72.1083C299.682 72.6464 301.215 72.8856 302.748 72.8114C306.467 72.8992 310.068 71.5076 312.762 68.9422H312.762Z" fill="#111111"/>
<path d="M365.99 77.6478C362.689 74.5755 360.963 70.3839 360.812 65.0731C360.789 60.8148 361.017 56.5589 361.495 52.3275C361.953 48.051 362.791 43.8238 363.998 39.6956C365.198 34.7151 368.07 30.2968 372.134 27.1776C376.381 24.0058 381.575 22.3618 386.873 22.512C392.562 22.512 397.038 24.0672 400.3 27.1776C403.562 30.2894 405.269 34.4241 405.422 39.5818C405.497 43.8412 405.269 48.1006 404.738 52.3275C404.273 56.6402 403.435 60.9046 402.235 65.0731C401.065 70.0821 398.188 74.5279 394.098 77.6478C389.875 80.7738 384.728 82.3963 379.475 82.2567C373.785 82.2567 369.29 80.7204 365.99 77.6478ZM387.84 70.1942C389.971 68.3785 391.499 65.9573 392.22 63.2522C392.904 60.1424 393.549 56.5008 394.156 52.3275C394.58 48.7389 394.807 45.1298 394.838 41.5165C394.885 38.9632 393.971 36.4852 392.277 34.5745C391.417 33.6903 390.379 32.9995 389.231 32.5482C388.083 32.0969 386.853 31.8954 385.621 31.9574C382.954 31.9067 380.362 32.8382 378.338 34.5745C376.235 36.4045 374.729 38.8224 374.013 41.5165C373.404 44.2479 372.835 47.8516 372.306 52.3275C371.766 55.9455 371.462 59.5948 371.395 63.2522C371.346 65.8058 372.26 68.2843 373.956 70.1942C374.815 71.0792 375.854 71.7705 377.002 72.2218C378.15 72.6732 379.381 72.8742 380.613 72.8113C383.259 72.8425 385.827 71.9126 387.84 70.1942V70.1942Z" fill="#111111"/>
<path d="M412.802 77.2498C408.97 73.9119 407.055 69.4357 407.056 63.8211C407.056 63.2913 407.131 62.3431 407.282 60.9764L407.738 57.9036C407.737 57.7546 407.767 57.6071 407.826 57.4702C407.885 57.3332 407.971 57.2097 408.079 57.1073C408.2 56.9914 408.343 56.9014 408.499 56.8427C408.656 56.784 408.823 56.7579 408.99 56.766H417.07C417.228 56.7543 417.388 56.779 417.536 56.8382C417.684 56.8973 417.816 56.9893 417.923 57.1073C418.015 57.2155 418.079 57.3449 418.109 57.4839C418.139 57.6229 418.134 57.7671 418.094 57.9036L417.752 60.4076C417.66 61.0099 417.622 61.6192 417.638 62.2284C417.581 63.6684 417.842 65.1032 418.403 66.4308C418.964 67.7584 419.81 68.9462 420.882 69.9095C423.044 71.8441 426.06 72.8114 429.929 72.8114C434.101 72.8114 437.42 71.5786 439.886 69.1131C441.11 67.8833 442.07 66.4159 442.706 64.8013C443.343 63.1867 443.642 61.459 443.585 59.7244C443.601 58.4117 443.341 57.1103 442.821 55.9046C442.302 54.699 441.535 53.616 440.57 52.7259C438.558 50.7913 435.011 48.3446 429.929 45.3856C426.705 43.5983 423.589 41.6224 420.597 39.4681C418.264 37.7446 416.292 35.5794 414.794 33.0955C413.226 30.4053 412.438 27.3318 412.518 24.2191C412.518 23.6126 412.594 22.6263 412.745 21.2601C413.503 14.8875 416.14 9.88035 420.655 6.23858C425.167 2.59698 430.762 0.776184 437.44 0.776184C443.888 0.776184 448.99 2.46418 452.745 5.84018C456.501 9.21664 458.379 13.7497 458.379 19.4393C458.379 20.0472 458.303 21.1094 458.152 22.6258L457.81 25.243C457.811 25.3922 457.781 25.5399 457.722 25.677C457.663 25.8141 457.577 25.9376 457.468 26.0399C457.347 26.1557 457.205 26.2457 457.048 26.3043C456.892 26.363 456.725 26.3892 456.558 26.3812H448.365C448.206 26.3932 448.046 26.3687 447.898 26.3095C447.75 26.2504 447.618 26.1581 447.511 26.0399C447.418 25.9318 447.354 25.8023 447.325 25.6631C447.295 25.5239 447.301 25.3795 447.341 25.243L447.682 22.8534C447.77 22.2124 447.808 21.5656 447.796 20.9188C447.852 19.4809 447.602 18.0476 447.062 16.7136C446.522 15.3796 445.706 14.1754 444.666 13.1805C442.578 11.2083 439.714 10.222 436.073 10.2215C432.906 10.0895 429.797 11.0992 427.312 13.0667C424.95 15.1268 423.481 18.0237 423.214 21.1463C423.125 21.7107 423.087 22.2821 423.101 22.8533C423.071 24.1325 423.314 25.4034 423.814 26.5809C424.315 27.7585 425.061 28.8156 426.003 29.6814C427.938 31.5022 431.447 33.8541 436.53 36.7371C440.929 39.4681 444.248 41.6871 446.488 43.3943C448.708 45.0831 450.598 47.1661 452.064 49.5393C453.588 52.0994 454.358 55.0386 454.282 58.0173C454.282 58.5491 454.206 59.4975 454.054 60.8626C453.795 63.87 452.943 66.7964 451.547 69.4724C450.15 72.1484 448.237 74.521 445.917 76.4529C441.252 80.322 435.391 82.2566 428.335 82.2566C421.81 82.2567 416.632 80.5877 412.802 77.2498Z" fill="#111111"/>
<path d="M543.225 26.7225C545.766 29.4539 547.036 33.2472 547.037 38.1024C547.037 38.7855 546.961 40.0373 546.808 41.8577L542.143 80.2083C542.125 80.524 541.984 80.82 541.75 81.0327C541.516 81.2455 541.208 81.3581 540.891 81.3465H532.471C531.711 81.3465 531.407 80.9671 531.56 80.2083L535.998 43.451C536.086 42.6957 536.124 41.9354 536.112 41.1751C536.264 38.7443 535.491 36.346 533.949 34.4608C533.159 33.6414 532.2 33.0033 531.139 32.5908C530.078 32.1782 528.941 32.0009 527.805 32.0711C526.396 32.0482 524.998 32.3141 523.696 32.8523C522.395 33.3906 521.217 34.1897 520.236 35.2005C518.066 37.4719 516.758 40.4307 516.539 43.5648L511.986 80.2083C511.968 80.5241 511.827 80.8203 511.593 81.0331C511.359 81.2459 511.05 81.3584 510.734 81.3465H502.313C502.172 81.3507 502.032 81.322 501.904 81.2628C501.775 81.2035 501.663 81.1154 501.574 81.0052C501.481 80.8973 501.417 80.7678 501.387 80.6286C501.357 80.4893 501.363 80.3448 501.403 80.2083L508.23 24.5604C508.249 24.2448 508.391 23.9491 508.625 23.7364C508.859 23.5237 509.166 23.411 509.482 23.4222H517.904C518.662 23.4222 518.966 23.803 518.814 24.5604L518.359 28.0882C518.359 28.3157 518.416 28.449 518.529 28.4866C518.644 28.5257 518.775 28.4295 518.928 28.202C522.189 24.4857 526.628 22.6269 532.242 22.6258C537.022 22.6258 540.683 23.9914 543.225 26.7225Z" fill="#111111"/>
<path d="M551.554 78.2171C549.999 77.0718 548.743 75.5691 547.891 73.8359C547.04 72.1028 546.618 70.1902 546.661 68.2596C546.647 67.6883 546.685 67.117 546.774 66.5526L547.002 65.4144C547.009 65.115 547.132 64.83 547.343 64.6183C547.555 64.4065 547.84 64.2842 548.14 64.2767H555.992C556.151 64.2651 556.31 64.2898 556.458 64.3489C556.606 64.4081 556.739 64.5001 556.846 64.618C556.937 64.7264 557.001 64.8558 557.031 64.9948C557.061 65.1337 557.056 65.2779 557.016 65.4144L556.903 66.0975C556.79 67.104 556.934 68.1227 557.322 69.0583C557.71 69.9938 558.329 70.8154 559.122 71.4462C561.013 73.029 563.43 73.8416 565.893 73.722C568.583 73.835 571.224 72.988 573.347 71.3324C574.256 70.6385 574.992 69.7426 575.495 68.7155C575.999 67.6884 576.257 66.5583 576.249 65.4144C576.285 64.0691 575.795 62.7629 574.884 61.7728C573.97 60.7853 572.867 59.9918 571.64 59.4398C570.388 58.8709 568.472 58.0934 565.893 57.1073C561.86 55.8616 558.069 53.9374 554.683 51.4173C551.913 49.2176 550.528 45.9931 550.53 41.7439C550.53 35.9031 552.503 31.2942 556.448 27.9173C560.391 24.5423 565.512 22.8543 571.81 22.8533C577.272 22.8533 581.578 24.143 584.727 26.7224C586.265 27.9627 587.493 29.5444 588.313 31.3421C589.133 33.1398 589.522 35.1039 589.45 37.0784C589.462 37.8387 589.424 38.599 589.336 39.3543V39.5818C589.317 39.8975 589.176 40.1935 588.942 40.4062C588.708 40.6189 588.4 40.7316 588.084 40.72H580.346C579.663 40.72 579.321 40.3406 579.321 39.5818L579.434 39.1268C579.575 38.1229 579.468 37.0998 579.121 36.1473C578.774 35.1949 578.198 34.3423 577.444 33.6643C575.888 32.2239 573.668 31.5032 570.786 31.5022C568.184 31.3868 565.625 32.1927 563.559 33.7781C562.674 34.4611 561.961 35.3417 561.478 36.3494C560.994 37.3571 560.752 38.4641 560.772 39.5818C560.733 40.4762 560.933 41.3648 561.353 42.1553C561.773 42.9459 562.398 43.6094 563.161 44.077C565.698 45.5498 568.365 46.7879 571.128 47.7757C573.869 48.7269 576.549 49.848 579.151 51.1327C581.335 52.252 583.24 53.8462 584.727 55.7982C586.337 57.985 587.159 60.6524 587.059 63.3661C587.145 65.9493 586.629 68.5171 585.553 70.8672C584.477 73.2172 582.87 75.2853 580.858 76.9085C576.721 80.3221 571.391 82.029 564.868 82.0291C559.253 82.0291 554.815 80.7585 551.554 78.2171Z" fill="#111111"/>
<path d="M352.52 22.8806C352.515 22.9423 352.522 23.0044 352.542 23.0632C352.561 23.1219 352.593 23.1761 352.634 23.2224C352.662 23.2558 352.697 23.283 352.736 23.3025C352.775 23.3219 352.818 23.3333 352.861 23.3357H362.762C363.519 23.3357 363.823 23.7153 363.672 24.4744L362.99 30.6189C362.971 30.9347 362.83 31.2308 362.596 31.4436C362.362 31.6565 362.054 31.7692 361.738 31.7576H351.837C351.775 31.7488 351.712 31.7545 351.653 31.7743C351.594 31.794 351.54 31.8273 351.496 31.8714C351.451 31.9156 351.418 31.9694 351.398 32.0286C351.379 32.0878 351.373 32.1509 351.382 32.2127L347.513 63.3933C347.428 64.0728 347.39 64.7574 347.399 65.4422C347.399 67.7947 347.93 69.4448 348.992 70.3924C350.054 71.3416 351.723 71.8159 353.999 71.8152H356.162C356.919 71.8152 357.222 72.1944 357.072 72.9529L356.162 80.1219C356.184 80.2765 356.169 80.4341 356.12 80.5823C356.071 80.7305 355.987 80.8651 355.877 80.9756C355.767 81.0861 355.632 81.1693 355.484 81.2188C355.336 81.2682 355.178 81.2825 355.023 81.2605L350.699 81.3738C346.071 81.3738 342.562 80.5961 340.173 79.0408C337.783 77.4871 336.588 74.6232 336.588 70.449C336.588 69.7664 336.664 68.6664 336.815 67.1492L341.14 32.2127C341.149 32.1509 341.143 32.0879 341.123 32.0287C341.103 31.9695 341.07 31.9158 341.026 31.8716C340.981 31.8275 340.928 31.7943 340.868 31.7745C340.809 31.7547 340.746 31.7489 340.684 31.7576H335.336C334.653 31.7576 334.312 31.378 334.312 30.6189L335.108 24.4744C335.127 24.1586 335.268 23.8626 335.502 23.6498C335.736 23.4369 336.044 23.3242 336.36 23.3357H341.823C341.926 23.3255 342.025 23.2863 342.107 23.2224C342.163 23.1855 342.209 23.1345 342.239 23.0744C342.269 23.0144 342.282 22.9476 342.278 22.8806L342.778 18.7035L344.327 5.53448C344.415 4.9703 344.665 4.44395 345.047 4.02026C345.43 3.59657 345.928 3.29407 346.481 3.15001L353.198 1.80939C353.425 1.74803 353.664 1.74657 353.891 1.80515C354.119 1.86373 354.328 1.98034 354.497 2.14363C354.667 2.30691 354.791 2.51129 354.858 2.73682C354.924 2.96235 354.932 3.20135 354.878 3.43049L352.945 19.716L352.52 22.8806ZM344.327 5.53445C344.415 4.97027 344.665 4.44391 345.047 4.02023C345.43 3.59655 345.928 3.29405 346.481 3.15001L353.198 1.80939C353.425 1.74803 353.664 1.74657 353.891 1.80515C354.119 1.86373 354.328 1.98034 354.497 2.14363C354.667 2.30691 354.791 2.51129 354.858 2.73682C354.924 2.96235 354.932 3.20135 354.878 3.43049" fill="#111111"/>
<path d="M629.928 27.5189C626.628 24.2191 622.057 22.569 616.215 22.5687C610.947 22.4532 605.801 24.162 601.649 27.4056C597.562 30.615 594.708 35.1369 593.569 40.2073C592.618 44.2166 591.934 48.2844 591.521 52.3841C591.06 55.8184 590.794 59.2761 590.724 62.7405C590.707 63.7279 590.745 64.7154 590.837 65.6985C591.14 70.8587 592.866 74.9176 596.016 77.8753C599.163 80.8343 603.62 82.3138 609.387 82.3138C614.655 82.4292 619.801 80.7205 623.954 77.4769C627.674 74.5756 630.375 70.5656 631.665 66.0274C631.832 65.4146 631.602 65.0159 630.997 65.0159H622.516C622.186 65.0169 621.862 65.1095 621.582 65.2835C621.301 65.4576 621.075 65.7061 620.927 66.0014C620.21 67.6599 619.124 69.1328 617.751 70.3079C615.745 72.0269 613.171 72.9381 610.529 72.8642C609.282 72.9142 608.037 72.7082 606.872 72.2588C605.706 71.8094 604.645 71.1262 603.754 70.2513C602.892 69.3428 602.221 68.2702 601.781 67.0972C601.341 65.9242 601.141 64.6748 601.194 63.4232C601.163 61.5584 601.276 59.6941 601.535 57.847C601.526 57.7852 601.531 57.7222 601.551 57.6629C601.571 57.6037 601.604 57.5499 601.648 57.5057C601.693 57.4616 601.746 57.4283 601.806 57.4086C601.865 57.3888 601.928 57.3831 601.99 57.3919H632.261C632.42 57.4096 632.581 57.3932 632.734 57.3438C632.886 57.2943 633.026 57.2131 633.144 57.1054C633.263 56.9976 633.357 56.8659 633.421 56.719C633.484 56.5721 633.516 56.4133 633.513 56.2532C634.298 51.0908 634.754 45.8837 634.878 40.6634C634.878 35.2005 633.228 30.819 629.928 27.5189ZM623.839 48.1741C623.848 48.2359 623.842 48.299 623.823 48.3582C623.803 48.4174 623.77 48.4712 623.725 48.5154C623.681 48.5595 623.628 48.5928 623.568 48.6126C623.509 48.6323 623.446 48.638 623.384 48.6292H603.014C602.787 48.6292 602.673 48.4775 602.673 48.1741C603.128 45.2151 603.508 42.9769 603.811 41.4593C604.37 38.7851 605.789 36.3672 607.851 34.5745C609.902 32.8522 612.513 31.9412 615.191 32.014C616.428 31.953 617.663 32.1606 618.812 32.6223C619.962 33.084 620.997 33.789 621.848 34.6888C623.52 36.5828 624.397 39.0491 624.295 41.5735C624.142 44.7601 623.99 46.9603 623.839 48.1741Z" fill="#111111"/>
<path d="M496.808 27.5189C493.509 24.2191 488.938 22.569 483.095 22.5687C477.828 22.4532 472.682 24.162 468.529 27.4056C464.442 30.615 461.588 35.1369 460.449 40.2073C459.498 44.2166 458.814 48.2844 458.401 52.3841C457.94 55.8184 457.674 59.2761 457.604 62.7405C457.587 63.7279 457.625 64.7154 457.718 65.6985C458.02 70.8587 459.746 74.9176 462.896 77.8753C466.043 80.8343 470.5 82.3138 476.267 82.3138C481.535 82.4292 486.681 80.7205 490.834 77.4769C494.554 74.5756 497.255 70.5656 498.545 66.0274C498.712 65.4146 498.482 65.0159 497.877 65.0159H489.396C489.066 65.0169 488.742 65.1095 488.462 65.2835C488.181 65.4576 487.955 65.7061 487.807 66.0014C487.09 67.6599 486.004 69.1328 484.632 70.3079C482.625 72.0269 480.051 72.9381 477.41 72.8642C476.162 72.9142 474.917 72.7082 473.752 72.2588C472.586 71.8094 471.526 71.1262 470.635 70.2513C469.772 69.3428 469.101 68.2702 468.661 67.0972C468.221 65.9242 468.021 64.6748 468.074 63.4232C468.043 61.5584 468.157 59.6941 468.415 57.847C468.406 57.7852 468.412 57.7222 468.431 57.6629C468.451 57.6037 468.484 57.5499 468.529 57.5057C468.573 57.4616 468.627 57.4283 468.686 57.4086C468.745 57.3888 468.808 57.3831 468.87 57.3919H499.141C499.3 57.4096 499.461 57.3932 499.614 57.3438C499.766 57.2944 499.906 57.2131 500.025 57.1054C500.143 56.9977 500.237 56.866 500.301 56.719C500.364 56.5721 500.396 56.4133 500.393 56.2532C501.178 51.0908 501.634 45.8837 501.759 40.6634C501.758 35.2005 500.108 30.819 496.808 27.5189ZM490.719 48.1741C490.728 48.2359 490.723 48.299 490.703 48.3582C490.683 48.4174 490.65 48.4712 490.606 48.5154C490.561 48.5595 490.508 48.5928 490.448 48.6126C490.389 48.6323 490.326 48.638 490.264 48.6292H469.894C469.667 48.6292 469.553 48.4775 469.553 48.1741C470.009 45.2151 470.388 42.9769 470.691 41.4593C471.251 38.7851 472.669 36.3672 474.731 34.5745C476.782 32.8522 479.394 31.9412 482.071 32.014C483.308 31.953 484.543 32.1606 485.693 32.6223C486.842 33.084 487.877 33.789 488.728 34.6888C490.4 36.5828 491.277 39.0491 491.176 41.5735C491.022 44.7601 490.87 46.9603 490.719 48.1741V48.1741Z" fill="#111111"/>
<path d="M636.084 23.7972V23.1322C636.084 22.8993 636.213 22.7821 636.47 22.7821H645.364C645.62 22.7821 645.749 22.8993 645.749 23.1322V23.7972C645.749 24.0306 645.62 24.1473 645.364 24.1473H641.822C641.718 24.1473 641.667 24.1942 641.667 24.287V33.7172C641.667 33.9506 641.539 34.0673 641.283 34.0673H640.358C640.101 34.0673 639.973 33.9506 639.973 33.7172V24.287C639.973 24.1942 639.921 24.1473 639.819 24.1473H636.47C636.213 24.1473 636.085 24.0306 636.084 23.7972ZM656.376 22.7821H657.337C657.594 22.7821 657.723 22.8993 657.723 23.1322V33.7172C657.723 33.9506 657.595 34.0673 657.337 34.0673H656.414C656.157 34.0673 656.029 33.9506 656.029 33.7172V25.617C656.032 25.5885 656.026 25.5599 656.012 25.5348C655.998 25.5098 655.977 25.4895 655.952 25.4769C655.9 25.4539 655.862 25.4769 655.836 25.5472L653.18 29.1868C653.127 29.2573 653.056 29.3133 652.976 29.3501C652.895 29.3868 652.807 29.403 652.718 29.3973H652.525C652.437 29.4031 652.348 29.3869 652.268 29.3502C652.187 29.3135 652.117 29.2573 652.063 29.1868L649.407 25.5472C649.381 25.4769 649.342 25.4539 649.292 25.4769C649.266 25.4894 649.245 25.5096 649.231 25.5347C649.217 25.5598 649.211 25.5885 649.214 25.617V33.7172C649.214 33.9506 649.086 34.0673 648.83 34.0673H647.867C647.61 34.0673 647.482 33.9506 647.482 33.7172V23.1322C647.482 22.8992 647.61 22.7821 647.867 22.7821H648.868C648.955 22.7815 649.042 22.8 649.122 22.8363C649.202 22.8726 649.272 22.9257 649.33 22.9921L652.487 27.3671C652.519 27.3929 652.561 27.4055 652.602 27.4022C652.644 27.4053 652.685 27.3928 652.718 27.3671L655.914 22.9921C655.971 22.9256 656.042 22.8725 656.121 22.8362C656.201 22.7999 656.288 22.7815 656.376 22.7821V22.7821Z" fill="#111111"/>
</svg>
