<svg id="Logo" xmlns="http://www.w3.org/2000/svg" viewBox="0 0 795 243"><title>OtoSense</title><path d="M79.57074,160.1403v-79.998h79.57075v79.998ZM95.94591,92.59373v57.39683L145.83757,120.653Z" fill="#fff"/><path d="M276.18286,160.14006h-30.739v-79.809H276.3736c22.91195,0,36.65817,18.13825,36.65817,41.24037C313.03177,144.67427,300.81192,160.14006,276.18286,160.14006Zm-1.33632-66.25274H262.24592v53.8421h13.55617c17.94591,0,20.61855-15.27334,20.4285-26.92105C296.23059,111.64327,291.83845,93.88732,274.84654,93.88732Z" fill="#fff"/><path d="M230.22479,160.14006l-6.10992-17.75526H194.71222l-5.34529,17.75526H173.328l26.92092-79.99748h16.22881l30.16593,79.99748Zm-11.70508-33.985-10.0606-29.21036-8.82485,29.21036-.72167,4.96453h20.32879Z" fill="#fff"/><rect x="317.38191" y="80.14258" width="16.99277" height="79.99748" fill="#fff"/><path d="M365.18977,155.85141q-5.63233-5.51806-5.63281-14.73731,0-1.136.22851-3.86914l4.0957-33.457a27.816,27.816,0,0,1,4.43848-12.51807,25.19195,25.19195,0,0,1,9.38867-8.478,27.13454,27.13454,0,0,1,12.80274-3.01563q9.78661,0,15.47656,5.4624,5.68946,5.4624,5.69043,14.68018,0,1.13892-.22852,3.86914l-4.0957,33.457a27.21676,27.21676,0,0,1-8.76367,17.46826,26.072,26.072,0,0,1-18.09375,6.65772Q370.82258,161.37094,365.18977,155.85141Zm26.57226-7.90918a16.3599,16.3599,0,0,0,4.89453-10.2417l4.21-34.14014a17.28752,17.28752,0,0,0,.11425-2.27588,12.21377,12.21377,0,0,0-3.12988-8.76269,11.131,11.131,0,0,0-8.47754-3.3003,13.631,13.631,0,0,0-9.958,3.98291,17.55019,17.55019,0,0,0-4.95019,10.356l-4.09766,34.14014a19.58222,19.58222,0,0,0-.11328,2.50342,11.44669,11.44669,0,0,0,3.12988,8.478,11.29691,11.29691,0,0,0,8.36426,3.1294A14.03888,14.03888,0,0,0,391.762,147.94223Z" fill="#fff"/><path d="M444.98985,156.64779q-4.95119-4.60839-5.17774-12.5747a108.2895,108.2895,0,0,1,.68262-12.74561,72.62215,72.62215,0,0,1,2.50293-12.63184,22.39636,22.39636,0,0,1,8.13672-12.51806,23.51538,23.51538,0,0,1,14.73828-4.66553q8.53418,0,13.42773,4.66553,4.89258,4.66771,5.1211,12.40429a89.44633,89.44633,0,0,1-.6836,12.74561,75.25,75.25,0,0,1-2.50293,12.74561,22.15442,22.15442,0,0,1-8.13672,12.5747,23.52662,23.52662,0,0,1-14.623,4.60889Q449.93956,161.25668,444.98985,156.64779Zm21.84961-7.45361a13.79006,13.79006,0,0,0,4.38085-6.9419q1.0254-4.66479,1.93555-10.9248a99.31446,99.31446,0,0,0,.68164-10.811,10.17538,10.17538,0,0,0-2.56054-6.9419,8.67615,8.67615,0,0,0-6.65625-2.61719,10.86988,10.86988,0,0,0-7.28321,2.61719,13.95054,13.95054,0,0,0-4.32422,6.9419q-.91406,4.09716-1.707,10.811a84.45307,84.45307,0,0,0-.91113,10.9248,10.15966,10.15966,0,0,0,2.56055,6.9419,8.66418,8.66418,0,0,0,6.65722,2.61719A10.93045,10.93045,0,0,0,466.83946,149.19418Z" fill="#fff"/><path d="M491.802,156.24984q-5.74806-5.00684-5.7461-13.42871,0-.79467.22656-2.84472l.45508-3.07276a1.09382,1.09382,0,0,1,.3418-.79638,1.22756,1.22756,0,0,1,.91016-.34131h8.08007a1.04927,1.04927,0,0,1,.85352.34131.85972.85972,0,0,1,.1709.79638l-.3418,2.50391a10.28454,10.28454,0,0,0-.11426,1.8208,9.80784,9.80784,0,0,0,3.24414,7.68115q3.24317,2.90185,9.04688,2.90186,6.25781,0,9.957-3.69825a12.72082,12.72082,0,0,0,3.69922-9.38867,9.3668,9.3668,0,0,0-3.01563-6.99853q-3.01758-2.90186-10.64062-7.34033a93.72083,93.72083,0,0,1-9.332-5.91748,22.13764,22.13764,0,0,1-5.80274-6.37256,16.77625,16.77625,0,0,1-2.27636-8.87647q0-.90966.22753-2.959,1.13673-9.55884,7.90918-15.02149,6.769-5.4624,16.78516-5.4624,9.67236,0,15.30566,5.064,5.63379,5.06469,5.63379,13.59912,0,.91187-.22754,3.18652l-.34179,2.61719a1.088,1.088,0,0,1-.3418.79687,1.22907,1.22907,0,0,1-.91016.34131h-8.19335a1.044,1.044,0,0,1-.85352-.34131.85134.85134,0,0,1-.16992-.79687l.34082-2.38965a12.5898,12.5898,0,0,0,.11426-1.93457,10.16681,10.16681,0,0,0-3.12989-7.73828q-3.13184-2.95825-8.59277-2.959a13.22867,13.22867,0,0,0-8.76172,2.84522,12.08675,12.08675,0,0,0-4.09766,8.07959,9.42708,9.42708,0,0,0-.11328,1.707,8.98514,8.98514,0,0,0,2.90235,6.82812q2.90186,2.7312,10.52636,7.05567,6.59913,4.09644,9.958,6.65722a22.72643,22.72643,0,0,1,5.57617,6.145,15.79235,15.79235,0,0,1,2.21875,8.478q0,.79761-.22851,2.84522a22.83593,22.83593,0,0,1-8.13672,15.59033q-6.99756,5.80371-17.582,5.80371Q497.54708,161.25668,491.802,156.24984Z" fill="#fff"/><path d="M622.22446,105.7225q3.81151,4.09718,3.8125,11.37988,0,1.02466-.22852,3.75537l-4.665,38.35059a1.2097,1.2097,0,0,1-1.252,1.13818h-8.4209q-1.13965,0-.91016-1.13818l4.4375-36.75732a17.4595,17.4595,0,0,0,.11426-2.27588,9.65635,9.65635,0,0,0-2.16309-6.71436,7.8621,7.8621,0,0,0-6.14453-2.38965,10.31321,10.31321,0,0,0-7.56836,3.1294,13.46552,13.46552,0,0,0-3.69726,8.36425l-4.55274,36.64356a1.20851,1.20851,0,0,1-1.25195,1.13818h-8.4209a.91346.91346,0,0,1-.73926-.34131.84911.84911,0,0,1-.17089-.79687l6.82714-55.64795a1.21113,1.21113,0,0,1,1.252-1.13818h8.42187c.75782,0,1.06153.38086.91016,1.13818l-.45508,3.52783c0,.22754.05664.36084.16992.39844.11524.03906.2461-.05713.39844-.28467q4.89258-5.57446,13.31445-5.57617Q618.41245,101.62582,622.22446,105.7225Z" fill="#fff"/><path d="M630.5536,157.21713a12.03216,12.03216,0,0,1-4.89258-9.95752,9.42708,9.42708,0,0,1,.11328-1.707l.22754-1.13819a1.16738,1.16738,0,0,1,1.13769-1.13769h7.85254a1.04927,1.04927,0,0,1,.85352.34131.86239.86239,0,0,1,.1709.79638l-.11328.68311a5.9808,5.9808,0,0,0,2.21875,5.34863,9.8087,9.8087,0,0,0,6.77148,2.27588,11.34238,11.34238,0,0,0,7.45312-2.38965,7.37789,7.37789,0,0,0,2.90235-5.918,5.1731,5.1731,0,0,0-1.36524-3.6416,10.02387,10.02387,0,0,0-3.24414-2.333q-1.87793-.85326-5.74609-2.33251a37.127,37.127,0,0,1-11.21-5.69q-4.15577-3.29955-4.15332-9.67334,0-8.76123,5.918-13.82666,5.915-5.0625,15.3623-5.064,8.19288,0,12.917,3.86914a12.70846,12.70846,0,0,1,4.72266,10.356,17.28563,17.28563,0,0,1-.11426,2.27588v.22753a1.20971,1.20971,0,0,1-1.25195,1.13819h-7.73828q-1.02393,0-1.02442-1.13819l.11329-.45507a6.18982,6.18982,0,0,0-1.99024-5.46241q-2.335-2.16064-6.6582-2.16211a11.06494,11.06494,0,0,0-7.22656,2.27588,7.16689,7.16689,0,0,0-2.78711,5.80371A5.01039,5.01039,0,0,0,642.161,123.077a48.19533,48.19533,0,0,0,7.96679,3.69873,69.8131,69.8131,0,0,1,8.02344,3.35694,16.4342,16.4342,0,0,1,5.57617,4.66552,12.01969,12.01969,0,0,1,2.332,7.56787,16.69524,16.69524,0,0,1-6.20118,13.54248q-6.20508,5.12037-15.99023,5.12061Q635.44519,161.02914,630.5536,157.21713Z" fill="#fff"/><path d="M431.52005,101.88064a.45793.45793,0,0,0,.11377.3418.32218.32218,0,0,0,.22753.11328h9.9004q1.13671,0,.91064,1.13867l-.68262,6.14453a1.20977,1.20977,0,0,1-1.252,1.13867h-9.90088a.40237.40237,0,0,0-.45508.45508l-3.86914,31.18066a14.88842,14.88842,0,0,0-.11377,2.04883q0,3.52881,1.59326,4.9502,1.5923,1.42383,5.00733,1.42285h2.16211q1.136,0,.91015,1.13769l-.91015,7.16895a1.00656,1.00656,0,0,1-1.13819,1.13867l-4.32421.11328q-6.94263,0-10.52637-2.333-3.58521-2.33058-3.585-8.5918,0-1.02393.22754-3.29981l4.3247-34.93652a.4033.4033,0,0,0-.45556-.45508H414.336q-1.02391,0-1.02392-1.13867l.79638-6.14453a1.21,1.21,0,0,1,1.252-1.13867h5.4624a.55273.55273,0,0,0,.28467-.11328.381.381,0,0,0,.17041-.3418l.49976-4.17716,1.54976-13.169A2.926,2.926,0,0,1,425.48075,82.15l6.71683-1.34061a1.361,1.361,0,0,1,1.68091,1.6211L431.94543,98.716Zm-8.19267-17.34619A2.926,2.926,0,0,1,425.48075,82.15l6.71683-1.34061a1.361,1.361,0,0,1,1.68091,1.6211" fill="#fff"/><path d="M708.92807,106.51889q-4.94972-4.94971-13.71289-4.9502a22.84956,22.84956,0,0,0-14.56641,4.83692,22.56349,22.56349,0,0,0-8.08008,12.80175,93.37568,93.37568,0,0,0-2.04785,12.17676,91.64835,91.64835,0,0,0-.79687,10.35645,26.7694,26.7694,0,0,0,.11328,2.958q.4541,7.74024,5.17871,12.17676,4.71972,4.43848,13.37109,4.43848a22.84956,22.84956,0,0,0,14.56641-4.83692,22.22507,22.22507,0,0,0,7.71106-11.44946c.16705-.61279-.06275-1.01147-.66773-1.01147h-8.48114a1.7815,1.7815,0,0,0-1.58862.98547,11.87023,11.87023,0,0,1-3.17572,4.30652,10.64332,10.64332,0,0,1-7.222,2.55627,9.14748,9.14748,0,0,1-6.77509-2.61291,9.34777,9.34777,0,0,1-2.56055-6.82813,35.94012,35.94012,0,0,1,.34082-5.57617.40237.40237,0,0,1,.45508-.45508h30.27149a1.12762,1.12762,0,0,0,1.25195-1.13867,123.322,123.322,0,0,0,1.36523-15.58984Q713.87826,111.46909,708.92807,106.51889Zm-6.08887,20.65527a.40237.40237,0,0,1-.45508.45508H682.014q-.34131,0-.34082-.45508.6826-4.43847,1.13769-6.71484a12.52135,12.52135,0,0,1,4.04-6.88477,10.95161,10.95161,0,0,1,7.33984-2.56055,8.58153,8.58153,0,0,1,6.65723,2.67481,9.8068,9.8068,0,0,1,2.44727,6.88476Q703.06528,125.35337,702.8392,127.17416Z" fill="#fff"/><path d="M575.80826,106.51889q-4.9497-4.94971-13.71289-4.9502a22.84956,22.84956,0,0,0-14.5664,4.83692,22.56344,22.56344,0,0,0-8.08008,12.80175,93.37228,93.37228,0,0,0-2.04785,12.17676,91.64643,91.64643,0,0,0-.79688,10.35645,26.7694,26.7694,0,0,0,.11328,2.958q.45411,7.74024,5.17871,12.17676,4.71973,4.43848,13.3711,4.43848a22.84956,22.84956,0,0,0,14.5664-4.83692,22.225,22.225,0,0,0,7.71106-11.44946c.16706-.61279-.06274-1.01147-.66772-1.01147h-8.48114a1.78149,1.78149,0,0,0-1.58862.98547,11.87023,11.87023,0,0,1-3.17572,4.30652,10.64334,10.64334,0,0,1-7.222,2.55627,9.14747,9.14747,0,0,1-6.77508-2.61291,9.34773,9.34773,0,0,1-2.56055-6.82813,35.94012,35.94012,0,0,1,.34082-5.57617.40237.40237,0,0,1,.45508-.45508h30.27148a1.12761,1.12761,0,0,0,1.252-1.13867,123.32234,123.32234,0,0,0,1.36524-15.58984Q580.75846,111.46909,575.80826,106.51889Zm-6.08886,20.65527a.40237.40237,0,0,1-.45508.45508H548.8942q-.34131,0-.34082-.45508.68262-4.43847,1.1377-6.71484a12.52123,12.52123,0,0,1,4.04-6.88477A10.95159,10.95159,0,0,1,561.071,111.014a8.58155,8.58155,0,0,1,6.65723,2.67481,9.80684,9.80684,0,0,1,2.44726,6.88476Q569.94547,125.35337,569.7194,127.17416Z" fill="#fff"/><path d="M715.08441,102.79722v-.665c0-.23291.12891-.3501.38575-.3501h8.89355c.25586,0,.38477.11719.38477.3501v.665c0,.23339-.12891.35009-.38477.35009h-3.542c-.10352,0-.1543.04688-.1543.13965v9.43024c0,.2334-.1289.3501-.38476.3501h-.92481q-.38525,0-.38476-.3501V103.287c0-.09277-.05176-.13965-.1543-.13965h-3.34863Q715.0849,103.14731,715.08441,102.79722Zm20.29108-1.01514h.96192c.25683,0,.38574.11719.38574.3501v10.585q0,.3501-.38574.3501h-.92383q-.38526,0-.38477-.3501V104.617a.14.14,0,0,0-.07715-.14014c-.05175-.02295-.08984,0-.11523.07032l-2.65625,3.63964a.537.537,0,0,1-.46192.21045h-.19335a.53577.53577,0,0,1-.46192-.21045l-2.65625-3.63964c-.02539-.07032-.06445-.09327-.11523-.07032a.13855.13855,0,0,0-.07715.14014v8.10016c0,.2334-.12891.3501-.38477.3501h-.96289q-.38525,0-.38476-.3501v-10.585c0-.23291.12793-.3501.38476-.3501h1.001a.60521.60521,0,0,1,.46191.21l3.15723,4.375a.16435.16435,0,0,0,.11523.03516.16872.16872,0,0,0,.11621-.03516l3.19532-4.375A.60375.60375,0,0,1,735.37549,101.78208Z" fill="#fff"/></svg>