<svg width="322" height="248" viewBox="0 0 322 248" fill="none" xmlns="http://www.w3.org/2000/svg">
<line x1="148" y1="3" x2="148" y2="76" stroke="#B2B5C1" stroke-width="2" stroke-miterlimit="10" stroke-linecap="round"/>
<path d="M203 5H147V26H202.5L193 16.5L203 5Z" fill="#00AF60"/>
<path d="M198.611 180H99.3885C98.0947 180 97 179.367 97 178.618V78.3818C97 77.6333 98.0947 77 99.3885 77H198.611C199.905 77 201 77.6333 201 78.3818V178.676C201 179.367 199.905 180 198.611 180Z" fill="#D1D1D8"/>
<path d="M124 99H104V102H124V99Z" fill="white"/>
<path d="M124 105H104V108H124V105Z" fill="white"/>
<path d="M159 87H139V90H159V87Z" fill="white"/>
<path d="M194 82H104V85H194V82Z" fill="white"/>
<path d="M194 114H114V117H194V114Z" fill="white"/>
<path d="M194 119H104V122H194V119Z" fill="white"/>
<path d="M194 124H104V127H194V124Z" fill="white"/>
<path d="M194 130H104V133H194V130Z" fill="white"/>
<path d="M184 135H104V138H184V135Z" fill="white"/>
<path d="M194 145H114V148H194V145Z" fill="white"/>
<path d="M194 150H104V153H194V150Z" fill="white"/>
<path d="M194 155H104V158H194V155Z" fill="white"/>
<path d="M194 161H104V164H194V161Z" fill="white"/>
<path d="M184 166H104V169H184V166Z" fill="white"/>
<path d="M321 246L1.00001 246" stroke="#B2B5C1" stroke-width="2" stroke-miterlimit="10" stroke-linecap="round"/>
<path d="M209.27 182H140.73C138.114 182 136 179.886 136 177.27V108.73C136 106.114 138.114 104 140.73 104H209.27C211.886 104 214 106.114 214 108.73V177.27C214 179.886 211.886 182 209.27 182Z" fill="#7DDCF4" stroke="#00A1C0" stroke-width="4" stroke-miterlimit="10"/>
<path opacity="0.4" d="M158 149H152V171H158V149Z" fill="white"/>
<path opacity="0.4" d="M168 139H162V171H168V139Z" fill="white"/>
<path opacity="0.4" d="M178 145H172V171H178V145Z" fill="white"/>
<path opacity="0.4" d="M188 136H182V171H188V136Z" fill="white"/>
<path opacity="0.4" d="M198 123H192V171H198V123Z" fill="white"/>
<path opacity="0.2" d="M204 114H146V171H204V114Z" fill="white"/>
<path opacity="0.8" d="M158 149H152V164H158V149Z" fill="white"/>
<path opacity="0.8" d="M168 139H162V161H168V139Z" fill="white"/>
<path opacity="0.8" d="M178 145H172V163H178V145Z" fill="white"/>
<path opacity="0.8" d="M188 136H182V160H188V136Z" fill="white"/>
<path opacity="0.8" d="M198 122H192V155H198V122Z" fill="white"/>
<path d="M62 137L52 144.827V245" stroke="#B2B5C1" stroke-width="2" stroke-miterlimit="10" stroke-linecap="round"/>
<circle r="5" transform="matrix(-1 0 0 1 62 138)" fill="#00A1C0"/>
<path d="M309 137L299 144.827V245" stroke="#B2B5C1" stroke-width="2" stroke-miterlimit="10" stroke-linecap="round"/>
<circle r="5" transform="matrix(-1 0 0 1 309 138)" fill="#00A1C0"/>
<path d="M12 246L12 179" stroke="#B2B5C1" stroke-width="2" stroke-miterlimit="10" stroke-linecap="round"/>
<path d="M39 246L39 104" stroke="#B2B5C1" stroke-width="2" stroke-miterlimit="10" stroke-linecap="round"/>
<circle cx="12" cy="177" r="5" fill="#00A1C0"/>
<circle cx="39" cy="104" r="5" fill="#00A1C0"/>
<path d="M259 246L259 179" stroke="#B2B5C1" stroke-width="2" stroke-miterlimit="10" stroke-linecap="round"/>
<path d="M286 246L286 104" stroke="#B2B5C1" stroke-width="2" stroke-miterlimit="10" stroke-linecap="round"/>
<circle cx="259" cy="177" r="5" fill="#00A1C0"/>
<circle cx="286" cy="104" r="5" fill="#00A1C0"/>
<path d="M26 246L26 67L12 59" stroke="#B2B5C1" stroke-width="2" stroke-miterlimit="10" stroke-linecap="round"/>
<circle cx="13" cy="60" r="5" fill="#00A1C0"/>
<path d="M273 246L273 67L259 59" stroke="#B2B5C1" stroke-width="2" stroke-miterlimit="10" stroke-linecap="round"/>
<circle cx="260" cy="60" r="5" fill="#00A1C0"/>
<path d="M241.857 71.9934C241.857 71.9934 251.654 89.1925 252.38 93.2564C253.106 97.3203 244.034 123.663 244.034 123.663C244.034 123.663 246.066 130.557 243.889 131.718C241.712 132.88 237.939 135.274 237.358 133.242C236.777 131.21 237.358 124.679 237.358 124.679L239.027 123.3C239.027 123.3 244.833 95.7963 244.833 94.8529C244.833 93.9095 234.31 77.7264 234.31 77.7264L241.857 71.9934Z" fill="white" stroke="#626680" stroke-width="2" stroke-miterlimit="10" stroke-linecap="round"/>
<path d="M205.79 239.63L199.911 240.283L199.621 236.872L198.823 227.583L204.701 226.93L205.572 237.235L205.79 239.63Z" fill="#E4897B"/>
<path d="M235.181 238.904H229.448L229.375 237.598V237.453L229.085 229.18V229.035L229.013 225.842H234.673L235.181 238.904Z" fill="#E4897B"/>
<path d="M248.462 80.1937L238.665 86.8701L238.447 86.6524L232.496 78.8875L228.868 74.0978L234.238 59.4387C240.406 61.8335 248.462 80.1937 248.462 80.1937Z" fill="white" stroke="#626680" stroke-width="2" stroke-miterlimit="10" stroke-linecap="round"/>
<path d="M238.447 86.6524L232.496 78.8874L237.286 71.5579C237.286 71.5579 240.189 79.1051 238.447 86.6524Z" fill="#E4E4EA"/>
<path d="M228.65 238.541H235.616C235.834 238.541 236.052 238.686 236.124 238.904L237.285 243.984C237.358 244.419 237.068 244.855 236.632 245C236.56 245 236.487 245 236.415 245C234.165 245 232.568 244.855 229.738 244.855C227.996 244.855 222.771 245 220.377 245C217.982 245 217.692 242.605 218.635 242.387C223.062 241.444 226.327 240.138 227.779 238.832C227.924 238.686 228.287 238.541 228.65 238.541Z" fill="#00AF60"/>
<path d="M199.259 238.396H206.225C206.443 238.396 206.661 238.541 206.733 238.759L207.894 243.839C207.967 244.274 207.677 244.71 207.241 244.855C207.169 244.855 207.096 244.855 207.023 244.855C204.774 244.855 203.177 244.71 200.347 244.71C198.605 244.71 193.38 244.855 190.986 244.855C188.591 244.855 188.3 242.46 189.244 242.242C193.671 241.299 196.936 239.993 198.388 238.686C198.533 238.469 198.896 238.396 199.259 238.396Z" fill="#00AF60"/>
<path d="M198.243 236.001H206.589C206.589 236.001 205.936 163.939 214.934 139.628C215.587 147.684 216.313 156.029 216.966 162.996C217.402 167.278 217.837 170.979 218.273 173.809C220.885 191.951 227.561 236.727 227.561 236.727H235.907C235.907 236.727 234.891 193.838 233.948 175.986C232.859 156.61 232.424 114.084 232.351 110.455H202.089C199.187 125.695 191.785 186.654 198.243 236.001Z" fill="#407BFF"/>
<path d="M198.623 239.267H206.968C206.968 239.267 206.025 163.939 215.024 139.628C215.677 147.684 216.402 156.029 217.055 162.996C217.491 167.278 217.692 174.027 218.127 176.857C220.74 194.999 227.416 239.775 227.416 239.775L236.632 238.904C236.632 238.904 234.98 193.838 234.037 175.986C232.948 156.61 232.513 114.084 232.44 110.455H202.179C199.276 125.695 192.164 189.919 198.623 239.267Z" fill="#626680"/>
<path d="M221.393 169.237C221.393 169.822 221.783 183.472 222.563 188.542C223.344 193.612 230.758 232.417 230.758 232.417" stroke="#B2B5C1" stroke-width="2" stroke-miterlimit="10" stroke-linecap="round" stroke-dasharray="6 6"/>
<path d="M201.193 139.483C200.566 147.92 198.079 172.089 198.173 176.945C198.244 180.59 200.089 214.245 201.18 226.344" stroke="#B2B5C1" stroke-width="2" stroke-miterlimit="10" stroke-linecap="round" stroke-dasharray="6 6"/>
<path d="M227.489 58.3502C224.731 60.8901 217.909 59.9467 217.909 59.9467C217.909 59.9467 213.628 58.7856 214.571 57.4793C217.038 57.0439 218.272 55.8828 218.78 54.4314C219.07 53.5605 219.143 52.5446 218.998 51.6012C218.925 51.0932 218.853 50.5126 218.78 50.0046L227.198 43.691C226.11 47.8275 224.731 55.3748 227.489 58.3502Z" fill="white" stroke="#626680" stroke-width="2" stroke-miterlimit="10" stroke-linecap="round"/>
<path d="M215.364 46.1143C215.437 46.4046 215.509 46.6949 215.582 46.9126C216.162 48.5091 217.178 49.7428 218.412 50.6862C218.775 50.9039 219.065 51.1216 219.428 51.3393C221.315 52.2828 223.564 52.5005 225.596 51.6296C226.395 51.2668 227.266 50.7588 227.991 50.0331C230.821 47.1303 230.749 43.7921 231.112 38.2042C231.184 36.9705 231.039 35.7368 230.531 34.6483C228.862 30.7295 224.363 28.8427 220.444 30.5118C214.929 32.6163 214.13 41.0344 215.364 46.1143Z" fill="#626680"/>
<path d="M233.73 116.479L199.114 114.81C199.114 114.81 200.13 95.7237 203.686 77.2183C204.702 72.1385 205.863 67.0586 207.314 62.4141C208.113 59.8016 208.984 57.4068 209.927 55.1571C209.927 55.1571 231.408 56.8988 235.834 60.3096C240.261 63.7929 233.512 98.8442 233.73 116.479Z" fill="white" stroke="#626680" stroke-width="2" stroke-miterlimit="10" stroke-linecap="round"/>
<path d="M211.523 62.269C211.523 62.269 209.274 74.3156 203.976 78.8875C204.992 73.8077 206.879 66.4781 208.33 61.8336L211.523 62.269Z" fill="#E4E4EA"/>
<path d="M204.422 57.7485C204.422 57.7485 183.146 63.0741 179.928 63.4149C176.678 63.6902 155.683 56.8808 155.683 56.8808L153.677 60.7454C153.677 60.7454 171.201 69.5471 178.514 71.0211C185.893 72.4636 207.652 69.4823 207.652 69.4823L204.422 57.7485Z" fill="white" stroke="#626680" stroke-width="2" stroke-miterlimit="10" stroke-linecap="round"/>
<path d="M155.717 56.784C153.298 55.7736 145.818 54.6217 144.81 54.7038C143.803 54.786 145.017 60.3222 145.593 60.8503C146.17 61.3783 149.577 61.4299 151.045 60.9652C152.512 60.5006 154.677 61.1501 154.677 61.1501L155.717 56.784Z" fill="white" stroke="#626680" stroke-width="2" stroke-miterlimit="10" stroke-linecap="round"/>
<path d="M208.991 55.2891L190.641 60.3344L195.784 72.1945L210.86 71.2218C210.86 71.2218 214.998 59.4049 208.991 55.2891Z" fill="white" stroke="#626680" stroke-width="2" stroke-miterlimit="10" stroke-linecap="round"/>
<path d="M214.603 39.1478C214.603 39.1478 217.635 45.6427 223.586 45.087C229.536 44.5316 231.641 40.9546 232.038 40.3204C232.434 39.6862 231.34 28.13 224.163 27.5883C218.786 27.1822 215.565 32.0717 214.603 39.1478Z" fill="#FFD345"/>
<path d="M230.92 38.0139L230.946 37.9671C231.309 37.3141 232.016 37.1626 232.526 37.6293C233.034 38.096 233.153 39.0031 232.789 39.6565L232.767 39.6962C231.078 42.75 228.094 44.6221 224.364 44.9684C224.135 44.9897 223.911 45 223.691 45C218.114 45 215.261 38.4389 215.138 38.1492C214.839 37.4442 215.042 36.5616 215.591 36.1776C216.14 35.7936 216.826 36.053 217.126 36.7557" fill="#FFD345"/>
<path d="M230.92 38.0139L230.946 37.9671C231.309 37.3141 232.016 37.1626 232.526 37.6293C233.034 38.096 233.153 39.0031 232.789 39.6565L232.767 39.6962C231.078 42.75 228.094 44.6221 224.364 44.9684C224.135 44.9897 223.911 45 223.691 45C218.114 45 215.261 38.4389 215.138 38.1492C214.839 37.4442 215.042 36.5616 215.591 36.1776C216.14 35.7936 216.826 36.053 217.126 36.7557" stroke="#606782" stroke-width="2" stroke-miterlimit="10" stroke-linecap="round"/>
<path d="M220 37.3926C222.308 39.4109 225.496 39.4657 228.198 37.5182" stroke="#606782" stroke-width="2" stroke-miterlimit="10" stroke-linecap="round"/>
<rect x="77" y="145" width="75" height="75" rx="4" fill="#7DDCF4" stroke="#00A1C0" stroke-width="4" stroke-miterlimit="10"/>
<rect opacity="0.8" x="93.3042" y="161.304" width="41.3043" height="41.3043" rx="4" fill="white"/>
<rect x="96.5653" y="164.565" width="34.7826" height="34.7826" rx="2" fill="#00A1C0"/>
<rect x="99.8263" y="156.957" width="2.17391" height="4.34783" fill="#00A1C0"/>
<rect x="106.348" y="156.957" width="2.17391" height="4.34783" fill="#00A1C0"/>
<rect x="112.87" y="156.957" width="2.17391" height="4.34783" fill="#00A1C0"/>
<rect x="119.391" y="156.957" width="2.17391" height="4.34783" fill="#00A1C0"/>
<rect x="125.913" y="156.957" width="2.17391" height="4.34783" fill="#00A1C0"/>
<rect x="88.9568" y="196.087" width="2.17391" height="4.34783" transform="rotate(-90 88.9568 196.087)" fill="#00A1C0"/>
<rect x="88.9562" y="189.565" width="2.17391" height="4.34783" transform="rotate(-90 88.9562 189.565)" fill="#00A1C0"/>
<rect x="88.9562" y="183.043" width="2.17391" height="4.34783" transform="rotate(-90 88.9562 183.043)" fill="#00A1C0"/>
<rect x="88.9562" y="176.522" width="2.17391" height="4.34783" transform="rotate(-90 88.9562 176.522)" fill="#00A1C0"/>
<rect x="88.9562" y="170" width="2.17391" height="4.34783" transform="rotate(-90 88.9562 170)" fill="#00A1C0"/>
<rect x="134.609" y="196.087" width="2.17391" height="4.34783" transform="rotate(-90 134.609 196.087)" fill="#00A1C0"/>
<rect x="134.609" y="189.565" width="2.17391" height="4.34783" transform="rotate(-90 134.609 189.565)" fill="#00A1C0"/>
<rect x="134.609" y="183.043" width="2.17391" height="4.34783" transform="rotate(-90 134.609 183.043)" fill="#00A1C0"/>
<rect x="134.609" y="176.522" width="2.17391" height="4.34783" transform="rotate(-90 134.609 176.522)" fill="#00A1C0"/>
<rect x="134.609" y="170" width="2.17391" height="4.34783" transform="rotate(-90 134.609 170)" fill="#00A1C0"/>
<rect x="99.8263" y="202.609" width="2.17391" height="4.34783" fill="#00A1C0"/>
<rect x="106.348" y="202.609" width="2.17391" height="4.34783" fill="#00A1C0"/>
<rect x="112.87" y="202.609" width="2.17391" height="4.34783" fill="#00A1C0"/>
<rect x="119.391" y="202.609" width="2.17391" height="4.34783" fill="#00A1C0"/>
<rect x="125.913" y="202.609" width="2.17391" height="4.34783" fill="#00A1C0"/>
<rect x="140" y="72" width="16" height="5" fill="#B2B5C1"/>
</svg>
