<svg width="658" height="83" viewBox="0 0 658 83" fill="none" xmlns="http://www.w3.org/2000/svg">
<path d="M0.57074 81.1401V1.14209H80.1415V81.1401H0.57074ZM16.9459 13.5935V70.9903L66.8376 41.6528L16.9459 13.5935Z" fill="white"/>
<path d="M197.183 81.1401H166.444V1.33105H197.374C220.286 1.33105 234.032 19.4693 234.032 42.5714C234.032 65.6743 221.812 81.1401 197.183 81.1401ZM195.847 14.8873H183.246V68.7294H196.802C214.748 68.7294 217.421 53.4561 217.231 41.8084C217.231 32.6433 212.838 14.8873 195.847 14.8873Z" fill="white"/>
<path d="M151.225 81.1401L145.115 63.3848H115.712L110.367 81.1401H94.328L121.249 1.14258H137.478L167.644 81.1401H151.225ZM139.52 47.1551L129.459 17.9447L120.634 47.1551L119.913 52.1196H140.241L139.52 47.1551Z" fill="white"/>
<path d="M255.375 1.14258H238.382V81.1401H255.375V1.14258Z" fill="white"/>
<path d="M286.19 76.8515C282.435 73.1728 280.557 68.2604 280.557 62.1142C280.557 61.3569 280.633 60.0672 280.785 58.2451L284.881 24.7881C285.328 20.3182 286.851 16.0231 289.32 12.27C291.677 8.69148 294.909 5.77349 298.708 3.79202C302.664 1.75205 307.061 0.716409 311.511 0.77639C318.035 0.77639 323.194 2.59719 326.988 6.23879C330.781 9.88039 332.677 14.7738 332.678 20.919C332.678 21.6782 332.602 22.968 332.45 24.7881L328.354 58.2451C327.696 64.952 324.573 71.1764 319.59 75.7134C314.631 80.163 308.157 82.5453 301.496 82.3711C295.047 82.3711 289.945 80.5312 286.19 76.8515ZM312.762 68.9424C315.564 66.222 317.3 62.5893 317.657 58.7007L321.867 24.5605C321.955 23.8052 321.993 23.045 321.981 22.2846C322.135 19.0652 321.01 15.9155 318.851 13.5219C317.75 12.4059 316.426 11.5349 314.965 10.9662C313.504 10.3974 311.939 10.1437 310.373 10.2216C308.53 10.1777 306.698 10.508 304.986 11.1926C303.275 11.8772 301.72 12.9018 300.415 14.2046C297.651 17.0041 295.908 20.6513 295.465 24.5606L291.368 58.7007C291.276 59.5319 291.239 60.3681 291.254 61.2041C291.173 62.7557 291.409 64.3075 291.947 65.7651C292.485 67.2226 293.314 68.5554 294.384 69.6821C295.492 70.7448 296.806 71.5704 298.244 72.1084C299.682 72.6465 301.215 72.8857 302.748 72.8115C306.467 72.8993 310.069 71.5077 312.762 68.9424H312.762Z" fill="white"/>
<path d="M365.99 77.6476C362.689 74.5754 360.963 70.3838 360.812 65.0729C360.789 60.8147 361.017 56.5588 361.495 52.3273C361.953 48.0509 362.791 43.8237 363.998 39.6955C365.198 34.715 368.07 30.2967 372.134 27.1774C376.381 24.0057 381.574 22.3616 386.873 22.5119C392.562 22.5119 397.038 24.0671 400.3 27.1774C403.562 30.2892 405.269 34.424 405.421 39.5817C405.497 43.8411 405.269 48.1005 404.738 52.3273C404.272 56.6401 403.435 60.9045 402.235 65.0729C401.065 70.082 398.188 74.5278 394.098 77.6476C389.875 80.7737 384.727 82.3962 379.475 82.2565C373.785 82.2565 369.29 80.7202 365.99 77.6476ZM387.839 70.194C389.971 68.3784 391.499 65.9571 392.22 63.2521C392.904 60.1423 393.549 56.5007 394.156 52.3273C394.58 48.7388 394.807 45.1297 394.837 41.5163C394.885 38.963 393.971 36.4851 392.277 34.5744C391.417 33.6902 390.379 32.9993 389.231 32.548C388.083 32.0967 386.852 31.8953 385.621 31.9572C382.954 31.9066 380.362 32.8381 378.337 34.5744C376.235 36.4044 374.729 38.8223 374.013 41.5163C373.404 44.2478 372.835 47.8514 372.306 52.3273C371.766 55.9454 371.462 59.5946 371.395 63.2521C371.346 65.8057 372.26 68.2842 373.956 70.194C374.815 71.0791 375.854 71.7704 377.002 72.2217C378.15 72.6731 379.381 72.8741 380.613 72.8112C383.259 72.8424 385.827 71.9125 387.839 70.194Z" fill="white"/>
<path d="M412.802 77.25C408.97 73.9121 407.055 69.4359 407.056 63.8213C407.056 63.2915 407.131 62.3433 407.282 60.9766L407.738 57.9038C407.737 57.7548 407.767 57.6073 407.826 57.4703C407.885 57.3334 407.971 57.2099 408.079 57.1074C408.2 56.9916 408.343 56.9015 408.499 56.8429C408.656 56.7842 408.823 56.7581 408.99 56.7661H417.07C417.228 56.7545 417.388 56.7792 417.536 56.8384C417.684 56.8975 417.816 56.9895 417.923 57.1074C418.015 57.2157 418.079 57.3451 418.109 57.4841C418.139 57.6231 418.134 57.7673 418.094 57.9038L417.752 60.4077C417.66 61.0101 417.622 61.6194 417.638 62.2285C417.581 63.6686 417.842 65.1034 418.403 66.431C418.964 67.7586 419.81 68.9464 420.882 69.9097C423.044 71.8443 426.06 72.8115 429.929 72.8115C434.101 72.8115 437.42 71.5788 439.886 69.1133C441.11 67.8834 442.07 66.4161 442.706 64.8015C443.343 63.1868 443.642 61.4591 443.585 59.7246C443.601 58.4119 443.341 57.1105 442.821 55.9048C442.302 54.6992 441.535 53.6162 440.57 52.7261C438.558 50.7915 435.011 48.3447 429.929 45.3858C426.705 43.5985 423.589 41.6226 420.597 39.4683C418.264 37.7448 416.292 35.5796 414.794 33.0957C413.226 30.4055 412.438 27.332 412.518 24.2193C412.518 23.6128 412.594 22.6265 412.745 21.2603C413.503 14.8877 416.14 9.88053 420.655 6.23876C425.167 2.59716 430.762 0.776367 437.44 0.776367C443.888 0.776367 448.99 2.46436 452.745 5.84036C456.501 9.21682 458.379 13.7499 458.379 19.4395C458.379 20.0474 458.303 21.1096 458.152 22.626L457.81 25.2432C457.811 25.3924 457.781 25.5401 457.722 25.6772C457.663 25.8142 457.577 25.9378 457.468 26.0401C457.347 26.1558 457.205 26.2458 457.048 26.3045C456.892 26.3632 456.725 26.3894 456.558 26.3814H448.365C448.206 26.3934 448.046 26.3689 447.898 26.3097C447.75 26.2506 447.618 26.1583 447.511 26.0401C447.418 25.932 447.354 25.8025 447.325 25.6633C447.295 25.5241 447.301 25.3796 447.341 25.2432L447.682 22.8535C447.77 22.2126 447.808 21.5658 447.796 20.919C447.852 19.4811 447.602 18.0478 447.062 16.7138C446.522 15.3798 445.706 14.1756 444.666 13.1807C442.578 11.2085 439.714 10.2222 436.073 10.2217C432.906 10.0897 429.797 11.0994 427.312 13.0669C424.95 15.127 423.481 18.0239 423.214 21.1465C423.125 21.7109 423.087 22.2823 423.101 22.8535C423.071 24.1327 423.314 25.4036 423.814 26.5811C424.315 27.7587 425.061 28.8158 426.003 29.6816C427.938 31.5024 431.447 33.8543 436.53 36.7373C440.929 39.4683 444.248 41.6873 446.488 43.3945C448.708 45.0833 450.598 47.1663 452.064 49.5395C453.588 52.0996 454.358 55.0388 454.282 58.0175C454.282 58.5492 454.206 59.4977 454.054 60.8627C453.795 63.8702 452.943 66.7966 451.547 69.4726C450.15 72.1486 448.237 74.5212 445.917 76.4531C441.252 80.3222 435.391 82.2568 428.335 82.2568C421.81 82.2568 416.632 80.5879 412.802 77.25Z" fill="white"/>
<path d="M543.224 26.7227C545.765 29.4541 547.036 33.2474 547.037 38.1025C547.037 38.7856 546.961 40.0374 546.808 41.8579L542.143 80.2085C542.125 80.5242 541.984 80.8202 541.749 81.0329C541.515 81.2456 541.207 81.3583 540.891 81.3467H532.47C531.711 81.3467 531.407 80.9673 531.56 80.2085L535.998 43.4512C536.085 42.6959 536.124 41.9356 536.112 41.1753C536.264 38.7445 535.491 36.3462 533.949 34.4609C533.159 33.6416 532.2 33.0035 531.139 32.5909C530.078 32.1783 528.941 32.001 527.804 32.0713C526.396 32.0484 524.998 32.3143 523.696 32.8525C522.395 33.3907 521.217 34.1899 520.236 35.2007C518.066 37.4721 516.758 40.4309 516.539 43.5649L511.986 80.2085C511.968 80.5243 511.827 80.8204 511.593 81.0332C511.358 81.246 511.05 81.3586 510.734 81.3467H502.313C502.172 81.3508 502.032 81.3222 501.904 81.2629C501.775 81.2037 501.662 81.1156 501.574 81.0054C501.481 80.8975 501.417 80.768 501.387 80.6288C501.357 80.4895 501.362 80.345 501.403 80.2085L508.23 24.5605C508.249 24.245 508.391 23.9492 508.625 23.7366C508.858 23.5239 509.166 23.4111 509.482 23.4224H517.904C518.662 23.4224 518.966 23.8032 518.814 24.5605L518.359 28.0884C518.359 28.3159 518.416 28.4492 518.529 28.4868C518.644 28.5259 518.775 28.4297 518.928 28.2021C522.189 24.4858 526.627 22.6271 532.242 22.626C537.022 22.626 540.683 23.9915 543.224 26.7227Z" fill="white"/>
<path d="M551.554 78.2174C549.999 77.072 548.743 75.5693 547.891 73.8362C547.04 72.103 546.618 70.1904 546.661 68.2598C546.647 67.6886 546.685 67.1172 546.774 66.5528L547.002 65.4146C547.009 65.1153 547.132 64.8303 547.343 64.6185C547.555 64.4068 547.84 64.2845 548.14 64.277H555.992C556.151 64.2654 556.31 64.29 556.458 64.3492C556.606 64.4083 556.739 64.5003 556.846 64.6183C556.937 64.7267 557.001 64.8561 557.031 64.995C557.061 65.134 557.056 65.2781 557.016 65.4146L556.903 66.0978C556.79 67.1042 556.934 68.123 557.322 69.0585C557.71 69.994 558.329 70.8157 559.122 71.4464C561.013 73.0292 563.43 73.8418 565.893 73.7223C568.583 73.8353 571.224 72.9883 573.347 71.3326C574.256 70.6387 574.992 69.7428 575.495 68.7158C575.999 67.6887 576.257 66.5585 576.249 65.4146C576.285 64.0694 575.795 62.7631 574.884 61.773C573.97 60.7855 572.867 59.9921 571.64 59.44C570.388 58.8712 568.472 58.0937 565.893 57.1075C561.86 55.8619 558.069 53.9376 554.683 51.4175C551.913 49.2178 550.528 45.9934 550.53 41.7442C550.53 35.9034 552.503 31.2945 556.448 27.9175C560.391 24.5425 565.512 22.8545 571.81 22.8535C577.272 22.8535 581.578 24.1432 584.727 26.7227C586.265 27.9629 587.493 29.5447 588.313 31.3424C589.133 33.1401 589.522 35.1042 589.45 37.0787C589.462 37.839 589.424 38.5993 589.336 39.3545V39.5821C589.317 39.8978 589.176 40.1937 588.942 40.4064C588.708 40.6192 588.4 40.7318 588.084 40.7203H580.346C579.663 40.7203 579.321 40.3409 579.321 39.5821L579.434 39.127C579.575 38.1231 579.468 37.1 579.121 36.1476C578.774 35.1951 578.198 34.3425 577.444 33.6646C575.888 32.2242 573.668 31.5035 570.786 31.5025C568.184 31.3871 565.625 32.193 563.559 33.7784C562.674 34.4613 561.961 35.3419 561.478 36.3496C560.994 37.3574 560.752 38.4643 560.772 39.5821C560.733 40.4764 560.933 41.3651 561.353 42.1556C561.773 42.9461 562.398 43.6097 563.161 44.0772C565.698 45.5501 568.365 46.7881 571.128 47.776C573.869 48.7271 576.549 49.8483 579.151 51.1329C581.335 52.2523 583.24 53.8464 584.727 55.7984C586.337 57.9852 587.159 60.6527 587.059 63.3663C587.145 65.9496 586.629 68.5174 585.553 70.8674C584.477 73.2174 582.87 75.2855 580.858 76.9088C576.721 80.3224 571.391 82.0292 564.868 82.0294C559.253 82.0294 554.815 80.7587 551.554 78.2174Z" fill="white"/>
<path d="M352.52 22.8806C352.515 22.9423 352.522 23.0044 352.542 23.0631C352.561 23.1219 352.593 23.1761 352.634 23.2224C352.662 23.2557 352.697 23.2829 352.736 23.3024C352.775 23.3219 352.818 23.3332 352.861 23.3357H362.762C363.52 23.3357 363.823 23.7152 363.672 24.4743L362.99 30.6189C362.971 30.9347 362.83 31.2307 362.596 31.4436C362.362 31.6564 362.054 31.7691 361.738 31.7575H351.837C351.775 31.7487 351.712 31.7544 351.653 31.7742C351.594 31.7939 351.54 31.8272 351.496 31.8714C351.451 31.9155 351.418 31.9693 351.398 32.0286C351.379 32.0878 351.373 32.1508 351.382 32.2126L347.513 63.3933C347.428 64.0728 347.39 64.7574 347.399 65.4421C347.399 67.7946 347.93 69.4447 348.992 70.3923C350.054 71.3415 351.723 71.8158 353.999 71.8152H356.162C356.919 71.8152 357.222 72.1944 357.072 72.9528L356.162 80.1218C356.184 80.2764 356.169 80.4341 356.12 80.5822C356.071 80.7304 355.987 80.8651 355.877 80.9755C355.767 81.086 355.632 81.1693 355.484 81.2187C355.336 81.2682 355.178 81.2824 355.023 81.2605L350.699 81.3737C346.071 81.3737 342.562 80.5961 340.173 79.0407C337.783 77.487 336.588 74.6231 336.588 70.4489C336.588 69.7663 336.664 68.6664 336.815 67.1491L341.14 32.2126C341.149 32.1508 341.143 32.0878 341.123 32.0286C341.103 31.9695 341.07 31.9157 341.026 31.8716C340.982 31.8275 340.928 31.7942 340.868 31.7744C340.809 31.7546 340.746 31.7488 340.685 31.7575H335.336C334.653 31.7575 334.312 31.378 334.312 30.6189L335.108 24.4743C335.127 24.1585 335.268 23.8625 335.502 23.6497C335.736 23.4369 336.044 23.3241 336.36 23.3357H341.823C341.927 23.3255 342.025 23.2862 342.108 23.2224C342.164 23.1854 342.209 23.1344 342.239 23.0744C342.269 23.0144 342.282 22.9475 342.278 22.8806L342.778 18.7034L344.327 5.53442C344.415 4.97024 344.665 4.44388 345.048 4.0202C345.43 3.59651 345.928 3.29401 346.481 3.14994L353.198 1.80933C353.425 1.74797 353.664 1.74651 353.892 1.80509C354.119 1.86366 354.328 1.98028 354.497 2.14357C354.667 2.30685 354.791 2.51122 354.858 2.73676C354.924 2.96229 354.932 3.20129 354.878 3.43043L352.945 19.7159L352.52 22.8806ZM344.327 5.53439C344.415 4.9702 344.665 4.44385 345.048 4.02017C345.43 3.59649 345.928 3.29399 346.481 3.14994L353.198 1.80933C353.425 1.74797 353.664 1.74651 353.892 1.80509C354.119 1.86366 354.328 1.98028 354.497 2.14357C354.667 2.30685 354.791 2.51122 354.858 2.73676C354.924 2.96229 354.932 3.20129 354.878 3.43043" fill="white"/>
<path d="M629.928 27.5187C626.628 24.2189 622.057 22.5688 616.215 22.5685C610.947 22.453 605.801 24.1618 601.649 27.4054C597.562 30.6148 594.707 35.1367 593.569 40.2071C592.618 44.2164 591.934 48.2843 591.521 52.3839C591.06 55.8182 590.794 59.2759 590.724 62.7404C590.707 63.7277 590.745 64.7152 590.837 65.6984C591.14 70.8585 592.866 74.9174 596.016 77.8751C599.162 80.8341 603.619 82.3136 609.387 82.3136C614.655 82.4291 619.801 80.7203 623.953 77.4767C627.674 74.5754 630.375 70.5654 631.664 66.0272C631.832 65.4144 631.602 65.0158 630.997 65.0158H622.516C622.186 65.0167 621.862 65.1093 621.582 65.2834C621.301 65.4574 621.074 65.7059 620.927 66.0012C620.21 67.6597 619.124 69.1326 617.751 70.3077C615.745 72.0267 613.17 72.9379 610.529 72.864C609.281 72.914 608.037 72.708 606.871 72.2586C605.706 71.8092 604.645 71.126 603.754 70.2511C602.892 69.3426 602.22 68.27 601.781 67.097C601.341 65.924 601.141 64.6746 601.194 63.423C601.162 61.5582 601.276 59.6939 601.534 57.8468C601.526 57.785 601.531 57.722 601.551 57.6628C601.571 57.6035 601.604 57.5497 601.648 57.5056C601.692 57.4614 601.746 57.4281 601.806 57.4084C601.865 57.3886 601.928 57.3829 601.99 57.3917H632.261C632.42 57.4094 632.581 57.393 632.734 57.3436C632.886 57.2942 633.026 57.2129 633.144 57.1052C633.263 56.9975 633.357 56.8658 633.42 56.7188C633.484 56.5719 633.516 56.4131 633.513 56.2531C634.298 51.0906 634.754 45.8835 634.878 40.6632C634.878 35.2003 633.228 30.8188 629.928 27.5187ZM623.839 48.1739C623.848 48.2358 623.842 48.2988 623.823 48.358C623.803 48.4172 623.769 48.4711 623.725 48.5152C623.681 48.5594 623.627 48.5926 623.568 48.6124C623.509 48.6321 623.446 48.6378 623.384 48.629H603.014C602.786 48.629 602.673 48.4773 602.673 48.1739C603.128 45.215 603.507 42.9767 603.811 41.4591C604.37 38.7849 605.789 36.367 607.851 34.5743C609.902 32.852 612.513 31.9411 615.191 32.0138C616.428 31.9529 617.663 32.1604 618.812 32.6221C619.961 33.0838 620.997 33.7888 621.848 34.6886C623.52 36.5826 624.397 39.0489 624.295 41.5734C624.142 44.7599 623.99 46.9601 623.839 48.1739Z" fill="white"/>
<path d="M496.808 27.5187C493.508 24.2189 488.938 22.5688 483.095 22.5685C477.827 22.453 472.681 24.1618 468.529 27.4054C464.442 30.6148 461.588 35.1367 460.449 40.2071C459.498 44.2164 458.814 48.2843 458.401 52.3839C457.94 55.8182 457.674 59.2759 457.604 62.7404C457.587 63.7277 457.625 64.7152 457.717 65.6984C458.02 70.8585 459.746 74.9174 462.896 77.8751C466.043 80.8341 470.5 82.3136 476.267 82.3136C481.535 82.4291 486.681 80.7203 490.834 77.4767C494.554 74.5754 497.255 70.5654 498.545 66.0272C498.712 65.4144 498.482 65.0158 497.877 65.0158H489.396C489.066 65.0167 488.742 65.1093 488.462 65.2834C488.181 65.4574 487.955 65.7059 487.807 66.0012C487.09 67.6597 486.004 69.1326 484.632 70.3077C482.625 72.0267 480.051 72.9379 477.409 72.864C476.162 72.914 474.917 72.708 473.752 72.2586C472.586 71.8092 471.526 71.126 470.634 70.2511C469.772 69.3426 469.101 68.27 468.661 67.097C468.221 65.9241 468.021 64.6746 468.074 63.423C468.043 61.5582 468.157 59.6939 468.415 57.8468C468.406 57.785 468.412 57.722 468.431 57.6628C468.451 57.6035 468.484 57.5497 468.528 57.5056C468.573 57.4614 468.626 57.4281 468.686 57.4084C468.745 57.3886 468.808 57.3829 468.87 57.3917H499.141C499.3 57.4094 499.461 57.393 499.614 57.3436C499.766 57.2942 499.906 57.2129 500.024 57.1052C500.143 56.9975 500.237 56.8658 500.301 56.7188C500.364 56.5719 500.396 56.4131 500.393 56.2531C501.178 51.0906 501.634 45.8835 501.758 40.6632C501.758 35.2003 500.108 30.8188 496.808 27.5187ZM490.719 48.1739C490.728 48.2358 490.722 48.2988 490.703 48.358C490.683 48.4172 490.65 48.4711 490.606 48.5152C490.561 48.5594 490.508 48.5926 490.448 48.6124C490.389 48.6321 490.326 48.6378 490.264 48.629H469.894C469.667 48.629 469.553 48.4773 469.553 48.1739C470.008 45.215 470.388 42.9767 470.691 41.4591C471.251 38.7849 472.669 36.367 474.731 34.5743C476.782 32.852 479.394 31.941 482.071 32.0138C483.308 31.9529 484.543 32.1604 485.693 32.6221C486.842 33.0838 487.877 33.7888 488.728 34.6886C490.4 36.5826 491.277 39.0489 491.175 41.5734C491.022 44.7599 490.87 46.9601 490.719 48.1739Z" fill="white"/>
<path d="M636.084 23.7974V23.1324C636.084 22.8995 636.213 22.7823 636.47 22.7823H645.364C645.62 22.7823 645.748 22.8995 645.748 23.1324V23.7974C645.748 24.0308 645.62 24.1475 645.364 24.1475H641.822C641.718 24.1475 641.667 24.1944 641.667 24.2871V33.7174C641.667 33.9508 641.539 34.0675 641.283 34.0675H640.358C640.101 34.0675 639.973 33.9508 639.973 33.7174V24.2872C639.973 24.1944 639.921 24.1475 639.819 24.1475H636.47C636.213 24.1475 636.085 24.0308 636.084 23.7974ZM656.375 22.7823H657.337C657.594 22.7823 657.723 22.8994 657.723 23.1324V33.7174C657.723 33.9508 657.595 34.0675 657.337 34.0675H656.414C656.157 34.0675 656.028 33.9508 656.029 33.7174V25.6172C656.032 25.5887 656.026 25.5601 656.012 25.535C655.998 25.51 655.977 25.4897 655.952 25.477C655.9 25.4541 655.862 25.477 655.836 25.5474L653.18 29.187C653.127 29.2574 653.056 29.3135 652.976 29.3502C652.895 29.387 652.807 29.4032 652.718 29.3974H652.525C652.437 29.4033 652.348 29.3871 652.267 29.3504C652.187 29.3137 652.117 29.2575 652.063 29.187L649.407 25.5474C649.381 25.477 649.342 25.4541 649.292 25.477C649.266 25.4896 649.244 25.5097 649.231 25.5348C649.217 25.5599 649.211 25.5887 649.214 25.6172V33.7173C649.214 33.9507 649.085 34.0674 648.83 34.0674H647.867C647.61 34.0674 647.482 33.9507 647.482 33.7173V23.1323C647.482 22.8994 647.61 22.7822 647.867 22.7822H648.868C648.955 22.7817 649.042 22.8002 649.122 22.8365C649.201 22.8727 649.272 22.9259 649.33 22.9922L652.487 27.3672C652.519 27.3931 652.561 27.4057 652.602 27.4024C652.644 27.4055 652.685 27.393 652.718 27.3672L655.914 22.9922C655.971 22.9258 656.042 22.8726 656.121 22.8364C656.201 22.8001 656.288 22.7816 656.375 22.7823Z" fill="white"/>
</svg>
