<svg width="320" height="248" viewBox="0 0 320 248" fill="none" xmlns="http://www.w3.org/2000/svg">
<path d="M151.808 137H19.1923C17.4632 137 16 136.268 16 135.404V19.5964C16 18.7317 17.4632 18 19.1923 18H151.808C153.537 18 155 18.7317 155 19.5964V135.47C155 136.268 153.537 137 151.808 137Z" fill="#F5F5F5"/>
<path d="M53 121H24V129H53V121Z" fill="white"/>
<path d="M53 105H24V113H53V105Z" fill="white"/>
<path d="M53 89H24V97H53V89Z" fill="white"/>
<path d="M53 73H24V81H53V73Z" fill="white"/>
<path d="M131 57H24V65H131V57Z" fill="white"/>
<path d="M110 41H24V49H110V41Z" fill="white"/>
<path d="M148 25H24V33H148V25Z" fill="white"/>
<path d="M301.864 232H213.136C211.979 232 211 231.545 211 231.007V158.993C211 158.455 211.979 158 213.136 158H301.864C303.021 158 304 158.455 304 158.993V231.049C304 231.545 303.021 232 301.864 232Z" fill="#F5F5F5"/>
<path d="M299 222H216V227H299V222Z" fill="white"/>
<path d="M299 212H216V217H299V212Z" fill="white"/>
<path d="M299 202H216V207H299V202Z" fill="white"/>
<path d="M299 192H216V197H299V192Z" fill="white"/>
<path d="M299 182H216V187H299V182Z" fill="white"/>
<path d="M299 172H216V177H299V172Z" fill="white"/>
<path d="M299 162H216V167H299V162Z" fill="white"/>
<path d="M284 57H36V217H284V57Z" fill="#F2F2F2"/>
<path d="M284 216L36 216" stroke="#B2B5C1" stroke-width="2" stroke-miterlimit="10"/>
<path d="M284 57H36V73H284V57Z" fill="#D5D5D5"/>
<path d="M114 166L134 176.95V216" stroke="#B2B5C1" stroke-width="2" stroke-miterlimit="10" stroke-linecap="round"/>
<circle cx="112" cy="165" r="5" fill="#00A1C0"/>
<path d="M206 167L186 177.95V216" stroke="#B2B5C1" stroke-width="2" stroke-miterlimit="10" stroke-linecap="round"/>
<circle r="5" transform="matrix(-1 0 0 1 206 167)" fill="#00A1C0"/>
<path d="M213.5 187.5L199 194.73V216" stroke="#B2B5C1" stroke-width="2" stroke-miterlimit="10" stroke-linecap="round"/>
<circle r="5" transform="matrix(-1 0 0 1 214 187)" fill="#00A1C0"/>
<path d="M122 216V199.746L108.5 192H93.5" stroke="#B2B5C1" stroke-width="2" stroke-miterlimit="10" stroke-linecap="round"/>
<circle cx="93" cy="192" r="5" fill="#00A1C0"/>
<path d="M132 152V164.69L147 172.69V216" stroke="#B2B5C1" stroke-width="2" stroke-miterlimit="10" stroke-linecap="round"/>
<circle cx="132" cy="152" r="5" fill="#00A1C0"/>
<path d="M188 152V164.5L173 172.69V216" stroke="#B2B5C1" stroke-width="2" stroke-miterlimit="10" stroke-linecap="round"/>
<circle r="5" transform="matrix(-1 0 0 1 188 152)" fill="#00A1C0"/>
<path d="M160 216L160 136" stroke="#B2B5C1" stroke-width="2" stroke-miterlimit="10" stroke-linecap="round"/>
<circle cx="160" cy="135" r="5" fill="#00A1C0"/>
<rect x="272" y="61" width="8" height="8" fill="#FAFAFA"/>
<rect x="260" y="61" width="8" height="8" fill="#FAFAFA"/>
<rect x="248" y="61" width="8" height="8" fill="#FAFAFA"/>
<rect x="52" y="92" width="99" height="11" fill="#E0E0E0"/>
<rect x="155" y="92" width="42" height="11" fill="#E0E0E0"/>
<rect x="201" y="92" width="42" height="11" fill="#E0E0E0"/>
<rect x="247" y="92" width="21" height="11" fill="#E0E0E0"/>
<circle cx="118" cy="45" r="4" fill="white"/>
<circle cx="131" cy="45" r="4" fill="white"/>
<circle cx="144" cy="45" r="4" fill="white"/>
</svg>
