<svg width="676" height="443" viewBox="0 0 676 443" fill="none" xmlns="http://www.w3.org/2000/svg">
<path d="M585.63 351.146H54.973V355.971H585.63V351.146Z" fill="#E4E4EA"/>
<path d="M359.332 47.4841H566.148C574.489 47.4841 581.25 54.2425 581.25 62.5796V241.422C581.25 249.759 574.489 256.518 566.148 256.518H359.332C350.991 256.518 344.229 249.759 344.229 241.422V62.5796C344.229 54.2425 350.991 47.4841 359.332 47.4841Z" fill="#7DDCF4"/>
<path d="M359.332 47.4841H566.148C574.489 47.4841 581.25 54.2425 581.25 62.5796V241.422C581.25 249.759 574.489 256.518 566.148 256.518H359.332C350.991 256.518 344.229 249.759 344.229 241.422V62.5796C344.229 54.2425 350.991 47.4841 359.332 47.4841Z" stroke="#00A1C0" stroke-width="12" stroke-miterlimit="10"/>
<g opacity="0.5">
<g opacity="0.5">
<path opacity="0.5" d="M373.691 77.5222H360.699V83.438H373.691V77.5222Z" fill="#626680"/>
</g>
<g opacity="0.5">
<path opacity="0.5" d="M373.691 88.9575H360.699V94.8733H373.691V88.9575Z" fill="#626680"/>
</g>
<g opacity="0.5">
<path opacity="0.5" d="M373.691 100.393H360.699V106.308H373.691V100.393Z" fill="#626680"/>
</g>
<g opacity="0.5">
<path opacity="0.5" d="M373.691 111.834H360.699V117.75H373.691V111.834Z" fill="#626680"/>
</g>
<g opacity="0.5">
<path opacity="0.5" d="M373.691 123.269H360.699V129.185H373.691V123.269Z" fill="#626680"/>
</g>
<g opacity="0.5">
<path opacity="0.5" d="M373.691 134.704H360.699V140.62H373.691V134.704Z" fill="#626680"/>
</g>
<g opacity="0.5">
<path opacity="0.5" d="M373.691 146.145H360.699V152.061H373.691V146.145Z" fill="#626680"/>
</g>
<g opacity="0.5">
<path opacity="0.5" d="M373.691 157.581H360.699V163.496H373.691V157.581Z" fill="#626680"/>
</g>
<g opacity="0.5">
<path opacity="0.5" d="M373.691 168.565H360.699V174.481H373.691V168.565Z" fill="#626680"/>
</g>
<g opacity="0.5">
<path opacity="0.5" d="M373.691 180H360.699V185.916H373.691V180Z" fill="#626680"/>
</g>
<g opacity="0.5">
<path opacity="0.5" d="M373.691 191.436H360.699V197.351H373.691V191.436Z" fill="#626680"/>
</g>
<g opacity="0.5">
<path opacity="0.5" d="M373.691 202.877H360.699V208.793H373.691V202.877Z" fill="#626680"/>
</g>
<g opacity="0.5">
<path opacity="0.5" d="M373.691 214.312H360.699V220.228H373.691V214.312Z" fill="#626680"/>
</g>
<g opacity="0.5">
<path opacity="0.5" d="M373.691 225.747H360.699V231.663H373.691V225.747Z" fill="#626680"/>
</g>
</g>
<path d="M396.853 165.561H385.162V168.602H396.853V165.561Z" fill="white"/>
<path d="M549.761 168.837H561.452V165.796H549.761V168.837Z" fill="white"/>
<path d="M417.448 165.561H405.758V168.602H417.448V165.561Z" fill="white"/>
<path d="M529.165 168.837H540.856V165.796H529.165V168.837Z" fill="white"/>
<path d="M438.044 165.561H426.354V168.602H438.044V165.561Z" fill="white"/>
<path d="M508.569 168.837H520.26V165.796H508.569V168.837Z" fill="white"/>
<path d="M458.635 165.561H446.944V168.602H458.635V165.561Z" fill="white"/>
<path d="M487.979 168.837H499.669V165.796H487.979V168.837Z" fill="white"/>
<path d="M479.231 165.561H467.54V168.602H479.231V165.561Z" fill="white"/>
<path d="M396.853 131.27H385.162V162.214H396.853V131.27Z" fill="white"/>
<path d="M417.448 100.268H405.758V162.214H417.448V100.268Z" fill="white"/>
<path d="M438.044 83.8269H426.354V162.214H438.044V83.8269Z" fill="white"/>
<path d="M458.635 92.3481H446.944V162.207H458.635V92.3481Z" fill="white"/>
<path d="M479.231 77.5222H467.54V162.214H479.231V77.5222Z" fill="white"/>
<path d="M499.827 109.958H488.136V162.214H499.827V109.958Z" fill="white"/>
<path d="M520.417 109.958H508.727V162.214H520.417V109.958Z" fill="white"/>
<path d="M541.013 131.27H529.323V162.214H541.013V131.27Z" fill="white"/>
<path d="M561.609 109.958H549.919V162.214H561.609V109.958Z" fill="white"/>
<path d="M549.761 204.046H561.452V172.057H549.761V204.046Z" fill="#00B7E8"/>
<path d="M529.165 218.849H540.856V172.057H529.165V218.849Z" fill="#00B7E8"/>
<path d="M508.569 231.269H520.26V172.057H508.569V231.269Z" fill="#00B7E8"/>
<path d="M487.979 224.832H499.669V172.062H487.979V224.832Z" fill="#00B7E8"/>
<path d="M467.383 232.49H479.073V172.057H467.383V232.49Z" fill="#00B7E8"/>
<path d="M446.787 211.53H458.478V172.057H446.787V211.53Z" fill="#00B7E8"/>
<path d="M426.196 191.433H437.887V172.057H426.196V191.433Z" fill="#00B7E8"/>
<path d="M405.6 202.602H417.291V172.057H405.6V202.602Z" fill="#00B7E8"/>
<path d="M385.004 211.53H396.695V172.057H385.004V211.53Z" fill="#00B7E8"/>
<path d="M536.801 304.128H434.456V382.174H536.801V304.128Z" fill="#E4E4EA"/>
<path d="M434.456 382.174H395.181V226.313L434.456 304.128V382.174Z" fill="#B2B5C1"/>
<path d="M395.18 225.865H497.526L536.8 304.129H434.455L395.18 225.865Z" fill="white"/>
<g opacity="0.3">
<g opacity="0.3">
<path opacity="0.3" d="M404.629 232.476H427.639L436.469 250.071H413.459L404.629 232.476Z" fill="#9A34BF"/>
</g>
</g>
<path d="M419.105 260.825H424.539L431.278 274.256H425.845L419.105 260.825Z" fill="#FFD345"/>
<path d="M427.783 260.825H433.216L439.957 274.256H434.523L427.783 260.825Z" fill="#00A1C0"/>
<g opacity="0.3">
<g opacity="0.3">
<path opacity="0.3" d="M436.461 260.825H441.894L448.635 274.256H443.201L436.461 260.825Z" fill="#9A34BF"/>
</g>
</g>
<path d="M434.758 235.733H449.87L479.611 294.996H464.497L434.758 235.733Z" fill="#B2B5C1"/>
<path d="M441.114 240.386H447.724L472.794 290.343H466.184L441.114 240.386Z" fill="#626680"/>
<path d="M457.569 235.733H472.682L502.422 294.996H487.309L457.569 235.733Z" fill="#B2B5C1"/>
<path d="M463.925 240.386H470.535L495.606 290.343H488.994L463.925 240.386Z" fill="#626680"/>
<path d="M429.599 281.401H435.033L441.772 294.832H436.339L429.599 281.401Z" fill="#00A1C0"/>
<g opacity="0.3">
<g opacity="0.3">
<path opacity="0.3" d="M438.278 281.401H443.711L450.451 294.832H445.018L438.278 281.401Z" fill="#9A34BF"/>
</g>
</g>
<g opacity="0.3">
<g opacity="0.3">
<path opacity="0.3" d="M446.956 281.401H452.39L459.129 294.832H453.696L446.956 281.401Z" fill="#9A34BF"/>
</g>
</g>
<path d="M423.695 243.497C422.37 244.594 420.164 244.117 418.767 242.433C417.37 240.747 417.312 238.492 418.636 237.395C419.961 236.299 422.167 236.775 423.564 238.46C424.962 240.146 425.02 242.4 423.695 243.497Z" fill="#9A34BF"/>
<path d="M538.074 204.215L537.91 233.161L519.736 239.43L527.838 203.595L538.074 204.215Z" fill="white" stroke="#626680" stroke-width="2" stroke-miterlimit="10" stroke-linecap="round"/>
<path d="M449.629 243.04C449.629 244.965 447.989 246.526 445.967 246.526C443.944 246.526 442.305 244.965 442.305 243.04C442.305 241.115 443.944 239.555 445.967 239.555C447.989 239.555 449.629 241.115 449.629 243.04Z" fill="#00AF60"/>
<path d="M540.694 394.997L541.157 403.66L510.836 403.868L510.232 399.233L540.694 394.997Z" fill="#00AF60"/>
<path d="M534.694 262.539C534.107 264.005 529.566 312.242 530.446 326.026C531.326 339.81 540.694 394.997 540.694 394.997L520.332 398.006C520.332 398.006 509.096 336.287 508.216 333.354C507.335 330.421 504.653 266.037 504.653 266.037L534.694 262.539Z" fill="#626680"/>
<path d="M498.927 395.431C498.636 395.868 498.272 404.116 498.272 404.116L468.368 403.592L468.784 398.323L498.927 395.431Z" fill="#00AF60"/>
<path d="M439.498 404.625H555.789" stroke="#B2B5C1" stroke-width="2" stroke-miterlimit="10" stroke-linecap="round"/>
<path d="M498.864 395.355L500.817 335.876C500.817 335.876 515.199 281.454 515.786 267.67C516.373 253.886 480.142 263.558 480.142 263.558C480.142 263.558 475.976 318.221 476.562 327.019C477.15 335.818 479.933 397.284 479.933 397.284L498.864 395.355Z" fill="#626680"/>
<path d="M484.068 201.507C484.068 201.507 471.575 201.394 466.976 195.392C466.976 195.392 470.449 169.327 481.377 167.006C492.304 164.684 518.026 157.859 528.681 164.989C539.335 172.119 538.565 204.196 538.565 204.196L531.341 203.494L534.616 261.915C534.616 261.915 503.123 276.522 478.925 260.163L481.235 224.128L484.068 201.507Z" fill="white" stroke="#626680" stroke-width="2" stroke-miterlimit="10" stroke-linecap="round"/>
<path d="M493.536 196.077C491.166 194.917 486.748 189.226 485.068 185.464C483.344 192.819 481.93 199.577 480.089 201.183C482.412 201.49 484.069 201.507 484.069 201.507L481.235 224.128L478.925 260.164C479.051 260.249 479.179 260.327 479.306 260.411C481.083 255.003 482.76 249.552 484.417 244.108C490.281 224.843 493.769 216.299 493.536 196.077Z" fill="#E4E4EA"/>
<path d="M528.68 164.989C526.011 163.202 522.393 162.293 518.3 161.968C520.363 172.586 521.267 183.406 520.993 194.233C520.426 216.679 515.434 239.238 508.863 260.641C508.117 263.073 507.336 265.497 506.526 267.913C521.957 267.783 534.616 261.915 534.616 261.915L531.341 203.494L538.565 204.195C538.565 204.195 539.335 172.119 528.68 164.989Z" fill="#E4E4EA"/>
<path d="M484.068 201.507C484.068 201.507 471.575 201.394 466.976 195.392C466.976 195.392 470.449 169.327 481.377 167.006C492.304 164.684 518.026 157.859 528.681 164.989C539.335 172.119 538.565 204.196 538.565 204.196L531.341 203.494L534.616 261.915C534.616 261.915 503.123 276.522 478.925 260.163L481.235 224.128L484.068 201.507Z" stroke="#626680" stroke-width="2" stroke-miterlimit="10" stroke-linecap="round"/>
<path d="M484.068 201.507C484.068 201.507 476.691 225.474 475.916 226.25C475.141 227.024 452.348 242.728 451.727 243.038C451.107 243.348 446.106 240.829 444.089 241.14C442.073 241.449 440.987 242.379 440.987 242.379C440.987 242.379 439.281 238.659 442.073 237.264C444.864 235.87 447.036 235.095 448.276 235.405C449.517 235.714 451.262 236.53 451.262 236.53L465.627 219.706L470.344 198.13C474.625 200.45 479.153 201.596 484.068 201.507Z" fill="white" stroke="#626680" stroke-width="2" stroke-miterlimit="10" stroke-linecap="round"/>
<path d="M508.541 148.729C508.155 149.08 508.859 158.767 511.63 161.443C511.47 164.184 507.947 165.776 502.831 166.048C497.715 166.321 494.71 164.506 494.359 164.12C494.008 163.734 497.432 161.104 495.391 150.599C493.35 140.093 508.541 148.729 508.541 148.729Z" fill="white" stroke="#626680" stroke-width="2" stroke-miterlimit="10" stroke-linecap="round"/>
<path d="M485.734 139.004C485.734 139.004 489.823 150.139 495.467 151.695C498.496 152.53 508.168 152.032 510.467 149.317C512.765 146.602 516.03 139.528 515.822 138.484C515.613 137.44 485.734 139.004 485.734 139.004Z" fill="#626680"/>
<path d="M480.961 129.719C480.961 129.719 488.222 143.036 502.19 142.026C516.158 141.017 521.028 133.761 521.947 132.475C522.866 131.189 520.054 107.583 503.18 106.328C490.539 105.387 483.075 115.298 480.961 129.719Z" fill="#FFD345"/>
<path d="M519.478 130.855L519.546 130.76C520.493 129.435 522.334 129.127 523.661 130.074C524.987 131.021 525.295 132.862 524.348 134.188L524.29 134.268C519.891 140.465 512.117 144.264 502.401 144.966C501.806 145.01 501.222 145.031 500.648 145.031C486.121 145.031 478.691 131.717 478.371 131.129C477.59 129.699 478.119 127.908 479.55 127.128C480.98 126.349 482.768 126.876 483.549 128.302" fill="#FFD345"/>
<path d="M519.478 130.855L519.546 130.76C520.493 129.435 522.334 129.127 523.661 130.074C524.987 131.021 525.295 132.862 524.348 134.188L524.29 134.268C519.891 140.465 512.117 144.264 502.401 144.966C501.806 145.01 501.222 145.031 500.648 145.031C486.121 145.031 478.691 131.717 478.371 131.129C477.59 129.699 478.119 127.908 479.55 127.128C480.98 126.349 482.768 126.876 483.549 128.302" stroke="#606782" stroke-width="2" stroke-miterlimit="10" stroke-linecap="round"/>
<path d="M495.933 136.44C500.434 138.142 510.124 137.76 515.424 133.017" stroke="#606782" stroke-width="2" stroke-miterlimit="10" stroke-linecap="round"/>
<path d="M492.172 164.721C493.977 166.816 497.447 167.602 500.078 167.801C502.621 167.993 505.344 167.784 507.774 166.875C509.734 166.141 513.611 163.75 513.146 161.142C513.085 160.802 512.869 160.511 512.651 160.242C511.966 159.398 511.197 158.652 510.373 157.946C510.746 158.266 505.744 160.678 505.059 160.804C502.373 161.298 499.387 161.172 496.735 160.526C495.941 160.332 495.054 159.872 494.225 160.126C492.392 160.69 490.729 163.046 492.172 164.721Z" fill="white"/>
<path d="M492.172 164.721C493.977 166.816 497.447 167.602 500.078 167.801C502.621 167.993 505.344 167.784 507.774 166.875C509.734 166.141 513.611 163.75 513.146 161.142C513.085 160.802 512.869 160.511 512.651 160.242C511.966 159.398 511.197 158.652 510.373 157.946C510.746 158.266 505.744 160.678 505.059 160.804C502.373 161.298 499.387 161.172 496.735 160.526C495.941 160.332 495.054 159.872 494.225 160.126C492.392 160.69 490.729 163.046 492.172 164.721Z" stroke="#626680" stroke-width="2" stroke-miterlimit="10" stroke-linecap="round"/>
<path d="M469.786 190.507C473.303 192.994 477.676 194.245 481.977 193.994" stroke="#606782" stroke-width="2" stroke-miterlimit="10" stroke-linecap="round"/>
<path d="M531.296 197.26C533.37 197.309 535.451 197.048 537.448 196.485" stroke="#606782" stroke-width="2" stroke-miterlimit="10" stroke-linecap="round"/>
<path d="M527.606 183.544C529.224 190.138 530.247 196.878 530.66 203.654" stroke="#606782" stroke-width="2" stroke-miterlimit="10" stroke-linecap="round"/>
<path d="M484.333 272.674C483.469 284.3 480.043 317.605 480.171 324.296C480.269 329.318 482.812 375.694 484.315 392.367" stroke="#B2B5C1" stroke-width="2" stroke-miterlimit="10" stroke-linecap="round" stroke-dasharray="6 6"/>
<path d="M511.712 307.343C511.712 308.148 512.25 326.959 513.325 333.945C514.401 340.931 524.617 394.404 524.617 394.404" stroke="#B2B5C1" stroke-width="2" stroke-miterlimit="10" stroke-linecap="round" stroke-dasharray="6 6"/>
<path d="M354.358 281.599H386.371V293.104H354.358V281.599Z" fill="#E4E4EA"/>
<path d="M544.946 283.537H576.96V295.042H544.946V283.537Z" fill="#E4E4EA"/>
<path d="M553.143 303.302H570.976V314.806H553.143V303.302Z" fill="#E4E4EA"/>
<path d="M363.712 321.505H386.946V333.01H363.712V321.505Z" fill="#E4E4EA"/>
<path d="M497.762 107.098C497.218 107.196 497.114 108.023 497.488 108.429C497.862 108.836 498.469 108.913 499.021 108.93C499.594 108.946 500.18 108.925 500.718 108.728C501.256 108.531 501.746 108.136 501.937 107.597" stroke="#606782" stroke-width="2" stroke-miterlimit="10" stroke-linecap="round"/>
<path d="M583.718 382.249H340.776" stroke="#B2B5C1" stroke-width="2" stroke-miterlimit="10" stroke-linecap="round"/>
<path d="M334.514 315.388C334.609 314.663 334.667 313.93 334.688 313.198C334.699 312.776 334.348 312.432 333.926 312.436L332.82 312.445C332.41 312.449 332.083 312.124 332.064 311.715C332.035 311.108 331.976 310.508 331.892 309.917C331.833 309.512 332.094 309.133 332.496 309.059L333.583 308.857C333.998 308.781 334.277 308.377 334.186 307.966C334.027 307.251 333.832 306.543 333.601 305.849C333.468 305.449 333.021 305.245 332.625 305.393L331.591 305.778C331.209 305.92 330.79 305.728 330.632 305.351C330.397 304.794 330.137 304.25 329.852 303.721C329.657 303.361 329.772 302.914 330.125 302.706L331.079 302.145C331.443 301.931 331.567 301.455 331.34 301.1C330.945 300.482 330.517 299.883 330.06 299.309C329.798 298.979 329.308 298.942 328.987 299.216L328.144 299.938C327.833 300.204 327.372 300.167 327.095 299.866C326.686 299.423 326.256 298.999 325.807 298.598C325.502 298.326 325.457 297.868 325.716 297.552L326.418 296.699C326.688 296.37 326.633 295.881 326.294 295.622C326.223 295.569 326.153 295.516 326.082 295.463C325.57 295.082 325.038 294.721 324.494 294.387C324.134 294.166 323.662 294.298 323.454 294.665L322.909 295.628C322.707 295.984 322.263 296.105 321.899 295.919C321.365 295.643 320.816 295.393 320.254 295.169C319.874 295.018 319.673 294.603 319.81 294.217L320.178 293.175C320.318 292.777 320.107 292.333 319.705 292.208C319.004 291.989 318.292 291.807 317.572 291.66C317.159 291.577 316.759 291.864 316.691 292.28L316.511 293.371C316.445 293.775 316.068 294.043 315.662 293.993C315.139 293.926 314.61 293.882 314.074 293.86C313.666 293.843 313.339 293.518 313.339 293.109V292.006C313.339 291.584 312.992 291.236 312.57 291.251C311.839 291.278 311.108 291.342 310.382 291.442C309.965 291.5 309.683 291.903 309.756 292.318L309.947 293.405C310.018 293.808 309.751 294.185 309.351 294.271C308.758 294.398 308.175 294.552 307.604 294.733C307.214 294.858 306.796 294.664 306.656 294.279L306.281 293.246C306.138 292.849 305.692 292.64 305.302 292.798C304.621 293.073 303.954 293.383 303.307 293.725C302.934 293.923 302.808 294.398 303.018 294.763L303.573 295.724C303.778 296.078 303.657 296.523 303.312 296.741C302.801 297.064 302.306 297.409 301.83 297.778C301.508 298.029 301.048 297.99 300.785 297.678L300.071 296.829C299.798 296.507 299.309 296.463 298.997 296.746C298.454 297.237 297.935 297.758 297.445 298.303C297.163 298.616 297.207 299.105 297.531 299.376L298.378 300.084C298.692 300.347 298.732 300.806 298.481 301.13C298.113 301.606 297.768 302.1 297.447 302.61C297.228 302.956 296.783 303.077 296.428 302.872L295.471 302.32C295.106 302.109 294.63 302.235 294.432 302.608C294.089 303.256 293.778 303.923 293.503 304.602C293.345 304.993 293.554 305.437 293.951 305.581L294.989 305.958C295.373 306.097 295.567 306.514 295.444 306.904C295.263 307.475 295.109 308.057 294.983 308.651C294.897 309.051 294.52 309.318 294.118 309.248L293.025 309.059C292.61 308.986 292.207 309.268 292.15 309.686C292.051 310.411 291.989 311.143 291.965 311.876C291.951 312.297 292.3 312.643 292.722 312.642L293.827 312.639C294.235 312.637 294.561 312.964 294.579 313.372C294.604 313.98 294.659 314.58 294.742 315.172C294.798 315.577 294.535 315.955 294.132 316.027L293.044 316.221C292.629 316.296 292.347 316.698 292.437 317.111C292.591 317.826 292.783 318.535 293.009 319.23C293.139 319.631 293.586 319.837 293.982 319.692L295.017 319.313C295.4 319.173 295.817 319.368 295.973 319.744C296.205 320.304 296.464 320.849 296.746 321.379C296.939 321.74 296.822 322.187 296.468 322.393L295.51 322.949C295.145 323.16 295.018 323.635 295.243 323.992C295.634 324.612 296.059 325.214 296.512 325.79C296.773 326.122 297.263 326.161 297.585 325.889L298.432 325.173C298.744 324.908 299.204 324.948 299.48 325.25C299.887 325.695 300.315 326.121 300.762 326.524C301.065 326.798 301.109 327.256 300.848 327.571L300.14 328.422C299.867 328.75 299.922 329.24 300.26 329.5C300.362 329.579 300.463 329.656 300.566 329.732C301.046 330.089 301.543 330.428 302.051 330.744C302.409 330.966 302.882 330.837 303.091 330.473L303.643 329.512C303.847 329.157 304.292 329.038 304.654 329.227C305.187 329.505 305.734 329.76 306.295 329.987C306.674 330.141 306.872 330.557 306.734 330.941L306.36 331.981C306.217 332.378 306.425 332.822 306.827 332.951C307.526 333.173 308.238 333.361 308.957 333.51C309.369 333.596 309.77 333.312 309.841 332.895L310.028 331.804C310.096 331.401 310.474 331.135 310.88 331.188C311.68 331.293 312.495 331.35 313.324 331.35C313.355 331.35 313.385 331.348 313.417 331.348L313.427 333.189C313.429 333.61 313.779 333.956 314.2 333.939C314.931 333.909 315.663 333.84 316.387 333.736C316.804 333.675 317.083 333.271 317.008 332.856L316.811 331.77C316.738 331.368 317.002 330.989 317.402 330.901C317.994 330.771 318.576 330.612 319.146 330.428C319.535 330.302 319.955 330.493 320.096 330.877L320.478 331.909C320.623 332.304 321.07 332.511 321.46 332.351C322.139 332.072 322.803 331.758 323.449 331.412C323.82 331.212 323.944 330.737 323.732 330.372L323.171 329.415C322.965 329.062 323.083 328.617 323.427 328.397C323.936 328.071 324.428 327.722 324.901 327.35C325.223 327.098 325.682 327.134 325.947 327.444L326.668 328.29C326.941 328.612 327.431 328.652 327.742 328.367C328.282 327.874 328.798 327.35 329.285 326.802C329.565 326.487 329.518 325.998 329.193 325.729L328.343 325.026C328.027 324.766 327.985 324.307 328.234 323.982C328.599 323.503 328.941 323.007 329.259 322.494C329.475 322.146 329.92 322.023 330.275 322.226L331.236 322.773C331.603 322.982 332.077 322.853 332.273 322.479C332.613 321.829 332.92 321.161 333.191 320.48C333.347 320.088 333.135 319.645 332.738 319.503L331.696 319.132C331.31 318.995 331.113 318.579 331.235 318.188C331.414 317.617 331.565 317.033 331.688 316.439C331.772 316.039 332.147 315.77 332.55 315.837L333.642 316.021C334.059 316.09 334.46 315.807 334.514 315.388Z" fill="#7DDCF4"/>
<path d="M313.324 300.902C306.872 300.902 301.622 306.149 301.622 312.598C301.622 319.046 306.872 324.293 313.324 324.293C319.777 324.293 325.026 319.046 325.026 312.598C325.026 306.149 319.777 300.902 313.324 300.902ZM313.324 324.948C306.511 324.948 300.967 319.408 300.967 312.598C300.967 305.787 306.511 300.246 313.324 300.246C320.139 300.246 325.682 305.787 325.682 312.598C325.682 319.408 320.139 324.948 313.324 324.948Z" fill="white"/>
<path d="M318.494 312.595C318.494 315.448 316.18 317.76 313.326 317.76C310.473 317.76 308.158 315.448 308.158 312.595C308.158 309.743 310.473 307.431 313.326 307.431C316.18 307.431 318.494 309.743 318.494 312.595Z" fill="white"/>
<path d="M266.196 324.709C257.581 324.709 250.597 317.729 250.597 309.118C250.597 300.507 257.581 293.527 266.196 293.527C274.812 293.527 281.796 300.507 281.796 309.118C281.796 317.729 274.812 324.709 266.196 324.709ZM291.113 312.175L290.362 312.082C289.732 312.004 289.265 311.45 289.312 310.817C289.419 309.361 289.386 307.916 289.221 306.498C289.148 305.865 289.59 305.29 290.218 305.187L290.97 305.063C291.654 304.951 292.096 304.286 291.949 303.609C291.602 301.995 291.102 300.42 290.455 298.902C290.183 298.265 289.439 297.976 288.815 298.279L288.12 298.617C287.547 298.893 286.854 298.68 286.549 298.123C285.858 296.858 285.05 295.659 284.133 294.542C283.73 294.051 283.791 293.329 284.263 292.902L284.831 292.388C285.345 291.923 285.356 291.125 284.865 290.635C283.698 289.466 282.424 288.413 281.06 287.489C280.486 287.099 279.704 287.261 279.343 287.853L278.947 288.504C278.617 289.046 277.92 289.246 277.363 288.942C276.252 288.338 275.079 287.818 273.849 287.396C273.251 287.19 272.929 286.541 273.105 285.933L273.314 285.207C273.507 284.541 273.097 283.856 272.423 283.696C270.82 283.317 269.186 283.089 267.539 283.015C266.847 282.984 266.265 283.53 266.268 284.223L266.27 284.985C266.273 285.619 265.782 286.151 265.149 286.186C263.696 286.265 262.266 286.482 260.875 286.827C260.257 286.981 259.63 286.616 259.448 286.006L259.226 285.266C259.027 284.603 258.311 284.249 257.657 284.48C256.104 285.029 254.605 285.726 253.179 286.561C252.581 286.911 252.39 287.686 252.769 288.266L253.191 288.911C253.539 289.444 253.414 290.159 252.899 290.532C251.733 291.374 250.644 292.326 249.649 293.377C249.213 293.839 248.489 293.869 248.007 293.457L247.422 292.958C246.895 292.507 246.101 292.597 245.677 293.146C244.668 294.45 243.785 295.847 243.041 297.32C242.728 297.938 242.987 298.694 243.62 298.976L244.317 299.286C244.903 299.547 245.179 300.22 244.945 300.817C244.7 301.446 244.48 302.09 244.289 302.751C244.077 303.484 243.904 304.218 243.768 304.954C243.653 305.581 243.064 306.005 242.431 305.92L241.681 305.819C240.994 305.727 240.377 306.234 240.318 306.924C240.178 308.566 240.193 310.217 240.364 311.854C240.435 312.542 241.062 313.036 241.747 312.932L242.508 312.815C243.135 312.719 243.734 313.124 243.862 313.746C244.155 315.164 244.582 316.547 245.132 317.876C245.374 318.463 245.105 319.136 244.53 319.408L243.828 319.738C243.2 320.035 242.959 320.795 243.285 321.408C243.943 322.641 244.703 323.826 245.554 324.945C245.701 325.138 245.851 325.33 246.004 325.52C246.437 326.059 247.231 326.13 247.748 325.673L248.323 325.163C248.799 324.742 249.524 324.76 249.968 325.214C250.971 326.239 252.074 327.175 253.268 328.005C253.79 328.367 253.927 329.078 253.592 329.616L253.186 330.267C252.82 330.854 253.025 331.625 253.63 331.962C255.357 332.925 257.193 333.689 259.101 334.241L259.374 334.317L259.907 332.396C260.077 331.784 260.696 331.405 261.316 331.545C262.747 331.869 264.181 332.051 265.602 332.1C266.238 332.122 266.741 332.644 266.75 333.28L266.761 334.036C266.771 334.729 267.363 335.264 268.055 335.221C269.703 335.116 271.335 334.856 272.93 334.444C273.602 334.271 273.998 333.578 273.792 332.916L273.561 332.177C273.373 331.572 273.686 330.919 274.282 330.7C275.638 330.201 276.944 329.577 278.182 328.837C278.727 328.511 279.432 328.677 279.785 329.205L280.215 329.848C280.596 330.417 281.379 330.557 281.93 330.15C282.021 330.081 282.112 330.014 282.203 329.945C283.432 329.011 284.578 327.972 285.619 326.844C286.088 326.336 286.04 325.541 285.511 325.098L284.923 324.606C284.435 324.199 284.346 323.48 284.729 322.973C285.591 321.834 286.352 320.605 286.998 319.294C287.278 318.725 287.961 318.483 288.544 318.735L289.247 319.039C289.883 319.314 290.615 318.993 290.859 318.345C291.438 316.805 291.871 315.213 292.151 313.588C292.269 312.905 291.8 312.26 291.113 312.175Z" fill="#7DDCF4"/>
<path d="M317.507 302.182H84.8159C73.4603 302.182 64.2546 292.981 64.2546 281.632V278.103C64.2546 266.753 73.4603 257.553 84.8159 257.553H317.507C328.862 257.553 338.068 266.753 338.068 278.103V281.632C338.068 292.981 328.862 302.182 317.507 302.182Z" fill="#7DDCF4"/>
<path d="M84.816 261.485C75.6477 261.485 68.1888 268.94 68.1888 278.102V281.631C68.1888 290.795 75.6477 298.25 84.816 298.25H317.507C326.675 298.25 334.134 290.795 334.134 281.631V278.102C334.134 268.94 326.675 261.485 317.507 261.485H84.816ZM317.507 306.114H84.816C71.3091 306.114 60.3207 295.131 60.3207 281.631V278.102C60.3207 264.603 71.3091 253.621 84.816 253.621H317.507C331.013 253.621 342.002 264.603 342.002 278.102V281.631C342.002 295.131 331.013 306.114 317.507 306.114Z" fill="#00A1C0"/>
<path d="M328.533 252.626L327.228 255.632C330.362 256.991 333.157 258.987 335.451 261.454L335.451 261.455C335.462 261.468 335.474 261.48 335.486 261.492V261.492C335.491 261.498 335.497 261.505 335.503 261.511C335.503 261.511 335.503 261.511 335.503 261.511C335.514 261.523 335.526 261.536 335.537 261.548C335.538 261.548 335.539 261.549 335.539 261.549C335.55 261.562 335.561 261.573 335.572 261.586C335.572 261.586 335.573 261.587 335.573 261.587C335.579 261.593 335.583 261.597 335.588 261.603C335.589 261.604 335.59 261.605 335.59 261.606C335.602 261.618 335.612 261.629 335.623 261.642C335.624 261.643 335.624 261.643 335.625 261.644L335.64 261.661C335.641 261.661 335.641 261.662 335.642 261.662C335.647 261.667 335.652 261.674 335.657 261.679C335.659 261.68 335.659 261.681 335.66 261.682C335.664 261.687 335.67 261.693 335.674 261.698C335.675 261.699 335.676 261.7 335.677 261.701C335.681 261.705 335.687 261.712 335.691 261.717C335.692 261.718 335.692 261.718 335.693 261.719C335.698 261.724 335.703 261.73 335.708 261.735C335.709 261.737 335.71 261.738 335.712 261.74C335.716 261.744 335.72 261.749 335.724 261.753C335.725 261.755 335.727 261.757 335.728 261.758C335.733 261.763 335.738 261.768 335.743 261.774C335.744 261.776 335.745 261.777 335.746 261.778C335.75 261.783 335.754 261.787 335.758 261.791C335.76 261.793 335.762 261.795 335.763 261.797C335.767 261.802 335.771 261.806 335.775 261.811C335.777 261.812 335.777 261.813 335.779 261.814C335.783 261.819 335.788 261.824 335.792 261.829C335.795 261.832 335.797 261.835 335.799 261.837C335.802 261.84 335.805 261.844 335.808 261.847C335.81 261.849 335.812 261.852 335.814 261.854C335.818 261.859 335.824 261.865 335.828 261.869C335.829 261.871 335.83 261.872 335.832 261.873C335.835 261.878 335.84 261.882 335.843 261.886C335.845 261.889 335.847 261.891 335.849 261.893C335.852 261.896 335.855 261.9 335.858 261.903C335.861 261.906 335.862 261.908 335.864 261.911C335.869 261.916 335.873 261.92 335.878 261.925C335.88 261.928 335.881 261.93 335.883 261.932C335.886 261.935 335.89 261.939 335.893 261.942C335.895 261.945 335.897 261.948 335.899 261.951C335.902 261.953 335.905 261.956 335.908 261.96L335.919 261.972C335.921 261.975 335.924 261.978 335.927 261.981C335.929 261.984 335.932 261.987 335.935 261.991C335.937 261.993 335.939 261.995 335.941 261.998C335.944 262.001 335.946 262.004 335.949 262.007C335.953 262.011 335.958 262.016 335.961 262.021C335.964 262.024 335.967 262.028 335.969 262.031C335.972 262.033 335.973 262.034 335.976 262.038C335.979 262.041 335.981 262.044 335.984 262.047C335.986 262.05 335.988 262.051 335.99 262.054C335.995 262.06 336 262.065 336.005 262.071C336.007 262.073 336.009 262.075 336.011 262.078C336.013 262.081 336.017 262.084 336.019 262.088C336.02 262.089 336.023 262.091 336.025 262.094L336.034 262.104C336.034 262.105 336.035 262.106 336.035 262.107C336.042 262.114 336.049 262.122 336.055 262.129C336.057 262.131 336.057 262.131 336.059 262.133C336.062 262.137 336.066 262.141 336.069 262.145C336.07 262.146 336.071 262.147 336.072 262.148L336.104 262.186C336.105 262.187 336.106 262.188 336.107 262.19C336.111 262.194 336.114 262.197 336.118 262.202C336.125 262.211 336.133 262.221 336.141 262.229L336.142 262.23C336.146 262.234 336.149 262.239 336.153 262.243L336.154 262.245C336.166 262.258 336.178 262.272 336.189 262.285L336.19 262.285C336.588 262.756 336.971 263.242 337.333 263.741L339.985 261.814C337.053 257.781 333.092 254.604 328.533 252.626ZM345.165 275.561L341.9 275.859C341.959 276.501 341.992 277.151 342 277.806V277.808C342.001 277.814 342.001 277.819 342.001 277.825V277.868C342.002 277.873 342.002 277.878 342.002 277.883V277.947C342.002 277.952 342.002 277.958 342.002 277.964V281.783C342.002 281.79 342.002 281.799 342.002 281.806V281.864C342.002 281.865 342.001 281.867 342.001 281.868V281.924C342.001 281.925 342.001 281.926 342 281.927V281.959C342 281.966 342 281.974 342 281.981V282.018C341.999 282.025 341.999 282.032 341.999 282.04V282.045C341.999 282.054 341.998 282.061 341.998 282.07V282.077C341.998 282.084 341.998 282.091 341.998 282.097V282.104C341.998 282.112 341.998 282.12 341.997 282.129V282.156C341.997 282.158 341.996 282.16 341.996 282.163V282.187C341.996 282.19 341.996 282.192 341.996 282.194V282.215C341.995 282.217 341.995 282.219 341.995 282.221C341.995 282.23 341.995 282.239 341.994 282.246V282.252C341.994 282.259 341.994 282.267 341.994 282.274V282.28C341.994 282.288 341.993 282.296 341.993 282.305V282.312C341.992 282.318 341.992 282.325 341.992 282.331V282.339C341.992 282.347 341.992 282.355 341.991 282.363V282.371C341.991 282.376 341.99 282.384 341.99 282.39V282.397C341.99 282.405 341.99 282.414 341.99 282.422C341.989 282.424 341.989 282.426 341.989 282.429C341.989 282.435 341.989 282.441 341.988 282.448V282.456C341.988 282.464 341.988 282.472 341.988 282.481V282.487C341.987 282.494 341.987 282.5 341.987 282.507C341.987 282.509 341.986 282.512 341.986 282.515C341.986 282.523 341.986 282.532 341.986 282.539C341.986 282.541 341.986 282.544 341.985 282.546C341.985 282.552 341.985 282.559 341.984 282.565V282.573C341.984 282.581 341.984 282.59 341.983 282.597V282.604C341.983 282.611 341.983 282.617 341.983 282.623C341.983 282.626 341.982 282.629 341.982 282.632C341.982 282.64 341.981 282.648 341.981 282.656C341.981 282.658 341.981 282.66 341.981 282.662C341.981 282.669 341.981 282.675 341.98 282.681C341.98 282.684 341.98 282.688 341.979 282.691C341.979 282.699 341.979 282.706 341.979 282.715C341.979 282.717 341.979 282.718 341.978 282.72C341.978 282.727 341.978 282.734 341.977 282.74C341.977 282.743 341.977 282.746 341.977 282.749C341.977 282.757 341.976 282.765 341.976 282.773C341.976 282.775 341.976 282.777 341.975 282.778C341.975 282.785 341.975 282.791 341.975 282.798V282.808C341.974 282.814 341.974 282.823 341.973 282.83C341.973 282.833 341.973 282.835 341.973 282.837C341.973 282.844 341.972 282.85 341.972 282.857C341.972 282.86 341.971 282.863 341.971 282.865C341.971 282.873 341.971 282.882 341.97 282.89V282.892C341.97 282.899 341.969 282.908 341.969 282.915V282.924C341.968 282.931 341.967 282.939 341.967 282.946C341.967 282.949 341.967 282.95 341.967 282.952C341.967 282.959 341.966 282.966 341.965 282.973V282.982C341.965 282.988 341.965 282.996 341.964 283.003C341.964 283.005 341.964 283.008 341.964 283.011C341.964 283.017 341.963 283.025 341.963 283.03C341.962 283.034 341.962 283.038 341.962 283.041C341.962 283.047 341.962 283.053 341.961 283.059V283.068C341.96 283.076 341.96 283.083 341.96 283.089C341.959 283.092 341.959 283.096 341.959 283.099C341.958 283.105 341.958 283.112 341.958 283.118V283.124C341.957 283.132 341.956 283.14 341.956 283.147C341.956 283.151 341.956 283.154 341.955 283.157C341.955 283.163 341.954 283.17 341.954 283.176C341.954 283.178 341.954 283.18 341.954 283.182C341.953 283.19 341.952 283.198 341.952 283.206C341.952 283.209 341.952 283.212 341.952 283.215C341.951 283.222 341.95 283.227 341.95 283.234C341.95 283.236 341.95 283.238 341.95 283.241C341.949 283.248 341.949 283.256 341.948 283.264C341.948 283.267 341.948 283.27 341.948 283.274C341.947 283.279 341.947 283.285 341.946 283.291V283.299C341.946 283.306 341.945 283.314 341.945 283.321C341.945 283.325 341.944 283.329 341.944 283.331C341.943 283.337 341.943 283.343 341.943 283.349C341.943 283.352 341.943 283.354 341.942 283.357C341.941 283.364 341.941 283.373 341.941 283.38C341.94 283.383 341.94 283.386 341.94 283.39C341.939 283.395 341.939 283.399 341.939 283.405C341.939 283.409 341.938 283.412 341.938 283.415C341.937 283.422 341.937 283.43 341.936 283.438C341.936 283.441 341.935 283.444 341.935 283.448C341.935 283.454 341.935 283.458 341.934 283.464C341.934 283.467 341.934 283.469 341.933 283.473C341.933 283.481 341.933 283.488 341.932 283.495C341.932 283.498 341.931 283.502 341.931 283.506C341.931 283.511 341.931 283.516 341.93 283.521C341.93 283.524 341.929 283.528 341.929 283.532C341.929 283.539 341.928 283.546 341.927 283.553L341.927 283.565C341.926 283.569 341.926 283.574 341.925 283.578C341.925 283.582 341.925 283.585 341.925 283.589C341.924 283.596 341.924 283.604 341.923 283.611C341.923 283.614 341.922 283.618 341.922 283.622C341.922 283.627 341.921 283.631 341.921 283.636L341.92 283.648C341.92 283.654 341.919 283.662 341.918 283.669L341.918 283.681C341.917 283.685 341.916 283.688 341.916 283.694L341.915 283.705C341.914 283.712 341.914 283.72 341.914 283.726C341.913 283.73 341.912 283.735 341.912 283.739C341.912 283.743 341.912 283.747 341.911 283.751C341.911 283.755 341.91 283.759 341.91 283.764C341.91 283.77 341.909 283.778 341.908 283.785C341.908 283.789 341.908 283.793 341.907 283.795C341.906 283.8 341.906 283.804 341.906 283.81L341.905 283.821C341.905 283.828 341.904 283.835 341.903 283.842L341.903 283.854C341.902 283.857 341.901 283.863 341.901 283.867C341.901 283.871 341.901 283.875 341.9 283.879C341.899 283.886 341.899 283.89 341.899 283.897C341.898 283.902 341.897 283.907 341.897 283.912C341.897 283.916 341.896 283.92 341.896 283.924C341.895 283.928 341.895 283.932 341.895 283.937C341.894 283.941 341.893 283.946 341.893 283.951C341.893 283.957 341.892 283.963 341.891 283.97C341.891 283.974 341.891 283.978 341.89 283.982C341.89 283.986 341.889 283.99 341.889 283.994C341.889 284 341.888 284.004 341.887 284.009C341.887 284.014 341.886 284.021 341.886 284.028C341.885 284.032 341.885 284.036 341.885 284.04C341.884 284.043 341.884 284.048 341.884 284.052C341.883 284.056 341.882 284.061 341.882 284.065C341.882 284.072 341.881 284.078 341.88 284.085C341.88 284.09 341.879 284.093 341.879 284.097C341.879 284.101 341.878 284.106 341.878 284.11C341.878 284.115 341.877 284.118 341.876 284.123L341.874 284.143C341.874 284.146 341.874 284.151 341.873 284.154C341.873 284.159 341.872 284.163 341.872 284.168C341.872 284.171 341.871 284.175 341.87 284.178C341.87 284.186 341.869 284.194 341.868 284.201C341.868 284.205 341.867 284.208 341.867 284.211C341.866 284.216 341.866 284.221 341.866 284.226C341.865 284.229 341.865 284.232 341.865 284.236C341.864 284.243 341.863 284.251 341.862 284.259C341.862 284.262 341.861 284.266 341.861 284.269C341.861 284.274 341.86 284.278 341.859 284.283C341.859 284.287 341.859 284.289 341.859 284.293C341.857 284.301 341.857 284.31 341.856 284.317C341.855 284.321 341.855 284.323 341.855 284.326C341.854 284.331 341.853 284.336 341.853 284.341C341.853 284.343 341.853 284.346 341.852 284.349C341.851 284.358 341.851 284.368 341.849 284.376C341.849 284.379 341.849 284.38 341.849 284.383C341.848 284.388 341.847 284.394 341.847 284.399C341.847 284.401 341.846 284.403 341.846 284.404C341.845 284.414 341.844 284.425 341.843 284.435C341.842 284.437 341.842 284.439 341.842 284.441C341.842 284.446 341.841 284.451 341.84 284.456C341.84 284.458 341.84 284.46 341.84 284.462L341.836 284.494V284.498C341.835 284.503 341.834 284.508 341.834 284.514C341.833 284.516 341.833 284.517 341.833 284.519L341.829 284.552C341.829 284.553 341.828 284.554 341.828 284.555C341.828 284.56 341.827 284.566 341.826 284.571C341.826 284.573 341.826 284.576 341.826 284.577C341.825 284.588 341.823 284.6 341.822 284.611V284.612C341.821 284.618 341.821 284.623 341.82 284.629C341.819 284.631 341.819 284.632 341.819 284.634C341.817 284.651 341.815 284.669 341.812 284.687V284.69C341.81 284.708 341.807 284.726 341.806 284.743C341.805 284.745 341.805 284.747 341.805 284.749L341.798 284.802V284.804C341.795 284.823 341.792 284.841 341.79 284.86C341.609 286.23 341.314 287.565 340.914 288.854L344.047 289.822C344.866 287.177 345.281 284.422 345.281 281.632V278.103C345.281 277.256 345.241 276.4 345.165 275.561ZM333.942 299.77C332.442 301.129 330.773 302.306 328.971 303.263V303.264C328.927 303.287 328.882 303.311 328.837 303.334H328.836C328.821 303.343 328.807 303.349 328.792 303.357C328.791 303.358 328.791 303.358 328.79 303.359C328.783 303.363 328.777 303.366 328.769 303.37C328.769 303.37 328.768 303.37 328.768 303.37C328.754 303.377 328.739 303.385 328.725 303.393C328.723 303.393 328.723 303.393 328.722 303.394C328.715 303.398 328.708 303.401 328.701 303.405C328.701 303.405 328.701 303.405 328.7 303.405C328.693 303.409 328.685 303.412 328.678 303.416C328.678 303.417 328.678 303.417 328.677 303.418C328.67 303.421 328.664 303.424 328.657 303.427C328.656 303.427 328.655 303.428 328.654 303.429C328.64 303.436 328.626 303.444 328.612 303.451C328.61 303.452 328.608 303.452 328.607 303.454C328.601 303.456 328.595 303.459 328.589 303.462C328.588 303.462 328.587 303.463 328.586 303.463C328.579 303.467 328.573 303.471 328.565 303.475C328.564 303.475 328.563 303.475 328.562 303.476C328.556 303.479 328.55 303.482 328.544 303.484C328.542 303.486 328.541 303.486 328.539 303.488C328.533 303.49 328.527 303.494 328.521 303.497C328.52 303.497 328.519 303.498 328.518 303.498C328.511 303.501 328.504 303.505 328.497 303.509C328.496 303.509 328.494 303.51 328.493 303.511C328.488 303.513 328.482 303.517 328.477 303.519C328.475 303.52 328.472 303.521 328.47 303.522C328.457 303.529 328.444 303.536 328.43 303.542C328.428 303.543 328.426 303.544 328.424 303.545C328.419 303.548 328.413 303.551 328.408 303.553C328.407 303.554 328.404 303.555 328.403 303.556C328.396 303.56 328.389 303.563 328.383 303.566C328.381 303.566 328.38 303.567 328.379 303.568C328.373 303.571 328.368 303.573 328.362 303.576C328.36 303.578 328.358 303.578 328.356 303.579C328.351 303.582 328.345 303.585 328.339 303.587C328.338 303.589 328.336 303.589 328.335 303.59C328.329 303.593 328.321 303.597 328.315 303.599C328.313 303.6 328.311 303.601 328.309 303.602C328.304 303.605 328.299 303.607 328.294 303.61C328.292 303.611 328.289 303.612 328.287 303.614C328.281 303.617 328.274 303.619 328.268 303.622C328.267 303.623 328.265 303.623 328.264 303.624C328.259 303.627 328.253 303.63 328.247 303.633C328.245 303.634 328.242 303.635 328.24 303.636C328.234 303.639 328.231 303.641 328.226 303.643C328.224 303.644 328.221 303.646 328.219 303.646C328.213 303.65 328.206 303.653 328.2 303.656C328.198 303.657 328.196 303.658 328.193 303.659C328.188 303.661 328.184 303.664 328.179 303.666C328.177 303.667 328.174 303.669 328.171 303.67C328.167 303.673 328.162 303.675 328.156 303.676C328.155 303.678 328.152 303.678 328.151 303.68C328.145 303.682 328.137 303.686 328.131 303.689C328.129 303.69 328.127 303.692 328.125 303.692C328.12 303.695 328.115 303.697 328.11 303.699C328.108 303.701 328.106 303.701 328.103 303.702C328.098 303.705 328.091 303.709 328.086 303.711C328.083 303.713 328.08 303.714 328.078 303.715C328.074 303.717 328.068 303.72 328.064 303.722C328.061 303.723 328.058 303.724 328.055 303.726L328.042 303.732C328.04 303.733 328.037 303.734 328.034 303.735C328.028 303.739 328.023 303.741 328.016 303.745C328.013 303.746 328.01 303.747 328.008 303.749C328.004 303.751 328 303.752 327.996 303.754C327.992 303.755 327.99 303.756 327.987 303.758C327.983 303.76 327.979 303.762 327.975 303.764L327.96 303.771C327.956 303.773 327.952 303.775 327.948 303.777C327.945 303.779 327.941 303.78 327.937 303.782C327.935 303.783 327.931 303.785 327.928 303.786C327.925 303.787 327.921 303.789 327.918 303.791C327.914 303.792 327.91 303.794 327.907 303.796C327.901 303.799 327.895 303.802 327.889 303.805C327.886 303.806 327.883 303.808 327.88 303.809C327.876 303.81 327.872 303.812 327.868 303.814C327.866 303.815 327.863 303.817 327.86 303.818C327.857 303.82 327.853 303.821 327.849 303.823C327.844 303.826 327.837 303.829 327.832 303.832C327.828 303.833 327.825 303.835 327.821 303.836C327.818 303.838 327.815 303.839 327.811 303.841C327.808 303.842 327.804 303.844 327.8 303.846C327.798 303.848 327.794 303.849 327.792 303.85C327.785 303.853 327.779 303.856 327.772 303.859C327.769 303.861 327.767 303.862 327.763 303.863C327.76 303.865 327.756 303.867 327.752 303.868C327.75 303.869 327.746 303.871 327.743 303.872C327.739 303.874 327.735 303.876 327.731 303.878C327.728 303.88 327.725 303.881 327.721 303.883C327.715 303.886 327.709 303.888 327.703 303.891C327.701 303.891 327.698 303.893 327.695 303.895C327.691 303.897 327.687 303.898 327.683 303.9C327.681 303.901 327.677 303.903 327.675 303.904C327.661 303.91 327.648 303.917 327.634 303.922C327.632 303.924 327.629 303.925 327.626 303.926C327.622 303.927 327.618 303.929 327.614 303.931C327.611 303.933 327.609 303.934 327.606 303.935C327.6 303.939 327.592 303.941 327.586 303.944C327.583 303.946 327.58 303.946 327.577 303.948C327.573 303.95 327.569 303.952 327.566 303.954C327.563 303.955 327.56 303.956 327.558 303.957L327.545 303.963C327.544 303.964 327.541 303.965 327.539 303.965C327.531 303.969 327.523 303.973 327.515 303.976C327.512 303.977 327.511 303.978 327.509 303.979C327.505 303.981 327.499 303.983 327.495 303.985C327.493 303.986 327.492 303.986 327.49 303.988L327.447 304.007C327.444 304.008 327.442 304.009 327.44 304.01C327.435 304.012 327.431 304.014 327.427 304.016C327.425 304.017 327.424 304.017 327.422 304.018L327.392 304.031H327.391C327.387 304.034 327.382 304.036 327.377 304.038C327.375 304.038 327.373 304.04 327.371 304.04C327.356 304.047 327.341 304.054 327.325 304.06C327.324 304.06 327.323 304.061 327.322 304.062C327.318 304.064 327.312 304.066 327.308 304.068C327.307 304.069 327.305 304.07 327.303 304.07C327.288 304.078 327.272 304.083 327.257 304.091L327.254 304.092C327.249 304.094 327.244 304.097 327.238 304.098C327.238 304.099 327.237 304.099 327.236 304.099L327.188 304.12C327.187 304.121 327.186 304.121 327.185 304.121C327.146 304.138 327.107 304.156 327.068 304.172L327.066 304.173C327.044 304.182 327.021 304.192 326.999 304.201L326.997 304.202C326.958 304.219 326.918 304.235 326.878 304.251L326.878 304.252C325.494 304.827 324.047 305.278 322.55 305.592H322.549L322.531 305.596C322.512 305.6 322.495 305.604 322.476 305.608C322.474 305.608 322.475 305.608 322.474 305.608C322.455 305.612 322.438 305.615 322.421 305.619C322.42 305.619 322.419 305.62 322.418 305.62C322.413 305.621 322.407 305.621 322.401 305.623C322.4 305.623 322.4 305.623 322.398 305.623C322.394 305.625 322.39 305.625 322.385 305.626L323.037 308.837C327.907 307.85 332.439 305.555 336.143 302.199L333.942 299.77ZM309.304 306.114H296.19V309.39H309.304V306.114ZM283.077 306.114H269.963V309.39H283.077V306.114ZM256.85 306.114H243.736V309.39H256.85V306.114ZM230.623 306.114H217.509V309.39H230.623V306.114ZM204.396 306.114H191.282V309.39H204.396V306.114ZM178.169 306.114H165.055V309.39H178.169V306.114ZM151.942 306.114H138.828V309.39H151.942V306.114ZM125.715 306.114H112.602V309.39H125.715V306.114ZM99.488 306.114H86.3745V309.39H99.488V306.114ZM64.1138 294.706L61.3455 296.461C64.0134 300.667 67.7645 304.087 72.1923 306.354L73.6866 303.438C73.3496 303.265 73.0178 303.086 72.6906 302.899L72.69 302.898C72.6683 302.885 72.6454 302.873 72.6238 302.86L72.6231 302.859C72.6087 302.851 72.5942 302.843 72.5792 302.834C72.5792 302.834 72.5785 302.834 72.5779 302.834C72.5713 302.83 72.5634 302.826 72.5569 302.822C72.5569 302.822 72.5569 302.821 72.5562 302.821C72.549 302.817 72.5418 302.813 72.5339 302.808L72.5136 302.797C72.5129 302.796 72.5116 302.796 72.5103 302.795C72.4965 302.787 72.4828 302.778 72.469 302.771C72.4677 302.77 72.4664 302.769 72.4651 302.768C72.4592 302.765 72.4539 302.762 72.448 302.758C72.4467 302.757 72.4454 302.756 72.4441 302.756C72.4375 302.752 72.431 302.748 72.4244 302.745C72.4231 302.743 72.4218 302.743 72.4198 302.742C72.4146 302.739 72.4093 302.735 72.4041 302.732C72.4021 302.731 72.4002 302.73 72.3982 302.729C72.3936 302.726 72.3857 302.721 72.3811 302.718H72.3785C72.3726 302.714 72.3647 302.709 72.3588 302.705C72.3569 302.705 72.3556 302.703 72.3536 302.702C72.3484 302.699 72.3438 302.696 72.3392 302.693C72.3366 302.692 72.3346 302.691 72.3326 302.69C72.3267 302.686 72.3195 302.682 72.3136 302.678C72.3123 302.678 72.3103 302.676 72.3084 302.676C72.3038 302.673 72.2992 302.67 72.2946 302.667C72.292 302.665 72.2894 302.663 72.2867 302.663C72.2828 302.66 72.2775 302.657 72.2743 302.655C72.2716 302.654 72.2697 302.652 72.2671 302.651C72.2612 302.647 72.2553 302.644 72.2494 302.64C72.2467 302.638 72.2441 302.636 72.2408 302.635C72.2369 302.633 72.2336 302.631 72.2297 302.629C72.2271 302.627 72.2244 302.625 72.2212 302.623C72.2172 302.621 72.2113 302.617 72.2067 302.614C72.2041 302.612 72.2008 302.61 72.1975 302.609C72.193 302.606 72.189 302.604 72.1838 302.601C72.1812 302.599 72.1785 302.598 72.1759 302.596C72.172 302.593 72.1681 302.591 72.1648 302.589C72.1622 302.587 72.1589 302.585 72.1562 302.584C72.151 302.581 72.1444 302.577 72.1385 302.574L72.132 302.57C72.1274 302.566 72.1235 302.564 72.1189 302.561C72.1162 302.56 72.1136 302.558 72.111 302.557C72.1071 302.554 72.1031 302.552 72.0992 302.549C72.0946 302.547 72.09 302.543 72.0848 302.541C72.0822 302.539 72.0789 302.537 72.075 302.534C72.0717 302.532 72.0684 302.53 72.0651 302.528L72.0553 302.523C72.0527 302.521 72.0494 302.519 72.0461 302.517C72.0409 302.513 72.035 302.51 72.0297 302.507C72.0264 302.504 72.0232 302.502 72.0192 302.5C72.0159 302.499 72.014 302.498 72.0107 302.496C72.0074 302.493 72.0041 302.491 72.0009 302.489C71.9982 302.488 71.9943 302.485 71.9917 302.483C71.9858 302.479 71.9799 302.476 71.9733 302.472C71.9707 302.471 71.9681 302.469 71.9655 302.467C71.9615 302.465 71.9582 302.463 71.955 302.46C71.9517 302.459 71.9497 302.458 71.9471 302.456C71.9432 302.454 71.9399 302.451 71.9359 302.448C71.934 302.447 71.9327 302.446 71.9307 302.445C71.9228 302.441 71.9156 302.437 71.9078 302.431C71.9058 302.43 71.9045 302.429 71.9025 302.428C71.8986 302.425 71.894 302.423 71.89 302.42C71.8881 302.419 71.8861 302.418 71.8841 302.417C71.8756 302.412 71.8671 302.406 71.8579 302.401L71.8573 302.4C71.8527 302.397 71.8487 302.394 71.8441 302.391C71.8428 302.391 71.8402 302.389 71.8389 302.389C71.8343 302.386 71.8304 302.383 71.8258 302.38C71.816 302.374 71.8068 302.368 71.7969 302.363C71.7963 302.362 71.7943 302.361 71.7937 302.36C71.7891 302.357 71.7845 302.355 71.7805 302.351C71.7792 302.351 71.7773 302.349 71.776 302.349C71.7622 302.34 71.7478 302.331 71.7333 302.322L71.7307 302.321C71.7163 302.311 71.7012 302.302 71.6868 302.292C71.6861 302.292 71.6861 302.292 71.6855 302.291C71.6802 302.288 71.6756 302.285 71.6711 302.282C71.6697 302.281 71.6697 302.281 71.6684 302.281C71.654 302.271 71.6396 302.262 71.6252 302.253C71.6238 302.252 71.6232 302.252 71.6219 302.251C71.6015 302.238 71.5812 302.225 71.5615 302.212H71.5609C68.5691 300.28 66.0224 297.714 64.1138 294.706ZM58.8533 268.242C57.6521 271.392 57.043 274.71 57.043 278.103V281.632C57.043 281.893 57.0462 282.154 57.0535 282.412L60.3305 282.321C60.3253 282.139 60.322 281.955 60.3213 281.772V277.951C60.322 277.948 60.322 277.946 60.322 277.943V277.842C60.322 277.838 60.3226 277.834 60.3226 277.83V277.784C60.3233 277.781 60.3233 277.777 60.3233 277.773V277.747C60.3233 277.742 60.3233 277.737 60.324 277.733V277.704C60.324 277.699 60.3239 277.695 60.3246 277.69V277.663C60.3246 277.66 60.3253 277.655 60.3253 277.652V277.625C60.3259 277.621 60.3259 277.618 60.3259 277.614V277.596C60.3259 277.593 60.3266 277.59 60.3266 277.588V277.57C60.3266 277.564 60.3272 277.56 60.3272 277.555V277.55C60.3272 277.537 60.3279 277.524 60.3279 277.513V277.507C60.3285 277.502 60.3285 277.498 60.3285 277.493V277.486C60.3285 277.482 60.3285 277.479 60.3292 277.475V277.456C60.3299 277.454 60.3299 277.45 60.3299 277.448V277.437C60.3299 277.434 60.3298 277.432 60.3305 277.429V277.41C60.3312 277.406 60.3312 277.403 60.3312 277.4V277.391C60.3312 277.387 60.3318 277.383 60.3318 277.379V277.372C60.3318 277.368 60.3318 277.364 60.3325 277.36V277.353C60.3325 277.347 60.3331 277.341 60.3331 277.335V277.334C60.3331 277.327 60.3331 277.323 60.3338 277.317V277.309C60.3338 277.305 60.3338 277.301 60.3344 277.297V277.29C60.3344 277.286 60.3345 277.283 60.3351 277.279V277.26C60.3351 277.257 60.3351 277.255 60.3358 277.252V277.241C60.3358 277.238 60.3358 277.235 60.3364 277.232V277.222C60.3364 277.22 60.3371 277.216 60.3371 277.214V277.204C60.3371 277.201 60.3377 277.198 60.3377 277.194V277.186C60.3377 277.183 60.3384 277.179 60.3384 277.176V277.169C60.339 277.154 60.3397 277.14 60.3403 277.125V277.121C60.3403 277.117 60.341 277.114 60.341 277.11V277.102C60.3417 277.099 60.3416 277.095 60.3416 277.092V277.083C60.3423 277.079 60.3423 277.077 60.3423 277.074C60.3423 277.07 60.343 277.068 60.343 277.064V277.055C60.3436 277.052 60.3436 277.049 60.3436 277.046C60.3436 277.043 60.3436 277.04 60.3443 277.037V277.027C60.3443 277.024 60.3449 277.021 60.3449 277.017V277.01C60.3456 277.007 60.3456 277.001 60.3456 276.998C60.3456 276.996 60.3463 276.994 60.3463 276.99V276.98C60.3469 276.977 60.3469 276.973 60.3469 276.969C60.3469 276.967 60.3476 276.965 60.3476 276.962C60.3476 276.956 60.3482 276.95 60.3482 276.944C60.3482 276.941 60.3489 276.936 60.3489 276.933V276.925C60.3489 276.921 60.3489 276.918 60.3495 276.914V276.907C60.3502 276.904 60.3502 276.9 60.3502 276.897C60.3502 276.893 60.3508 276.891 60.3508 276.888C60.3508 276.885 60.3508 276.881 60.3515 276.877V276.87C60.3515 276.866 60.3522 276.862 60.3522 276.858V276.853C60.3528 276.849 60.3528 276.843 60.3535 276.839V276.834C60.3535 276.83 60.3541 276.827 60.3541 276.822C60.3541 276.82 60.3541 276.817 60.3548 276.815C60.3548 276.811 60.3548 276.807 60.3554 276.803V276.8C60.3567 276.777 60.3574 276.756 60.3587 276.734C60.3587 276.733 60.3594 276.732 60.3594 276.731C60.3594 276.727 60.3594 276.723 60.36 276.719V276.712C60.3607 276.708 60.3607 276.704 60.3607 276.7C60.3607 276.698 60.3613 276.696 60.3613 276.695C60.3613 276.69 60.362 276.686 60.362 276.682C60.362 276.68 60.362 276.678 60.3626 276.675V276.664C60.3626 276.662 60.3626 276.66 60.3633 276.658C60.3633 276.653 60.3633 276.649 60.364 276.644V276.64C60.3646 276.636 60.3646 276.631 60.3653 276.626V276.623C60.3653 276.618 60.3659 276.613 60.3659 276.608V276.607C60.3679 276.584 60.3692 276.56 60.3705 276.537L60.3718 276.52V276.519C60.3718 276.515 60.3725 276.508 60.3731 276.503V276.501C60.3731 276.496 60.3738 276.491 60.3738 276.485C60.3738 276.484 60.3744 276.484 60.3744 276.483L60.3751 276.468C60.3751 276.467 60.3751 276.466 60.3757 276.465C60.3757 276.459 60.3764 276.454 60.3764 276.45V276.448C60.3764 276.442 60.3771 276.437 60.3771 276.431C60.3771 276.431 60.3777 276.431 60.3777 276.43C60.3797 276.395 60.3823 276.362 60.3849 276.327V276.325C60.3856 276.319 60.3856 276.313 60.3863 276.308C60.3869 276.302 60.3869 276.297 60.3876 276.291V276.289C60.3882 276.284 60.3882 276.279 60.3889 276.273C60.3895 276.267 60.3895 276.261 60.3902 276.256V276.255C60.3935 276.208 60.3974 276.161 60.4013 276.115V276.113C60.5908 273.771 61.1114 271.52 61.9166 269.409L58.8533 268.242ZM81.0295 250.602C76.1008 251.277 71.4311 253.279 67.5239 256.394L69.5683 258.956C70.38 258.309 71.2337 257.713 72.1241 257.171V257.171C72.1661 257.145 72.2087 257.119 72.2507 257.094C72.288 257.072 72.3247 257.05 72.3615 257.028L72.3628 257.028C72.3831 257.015 72.4041 257.003 72.4244 256.99L72.4264 256.99C72.4415 256.981 72.4572 256.972 72.4723 256.963C72.4729 256.962 72.4729 256.962 72.4736 256.962C72.4788 256.959 72.4841 256.956 72.4887 256.954C72.4893 256.953 72.49 256.953 72.4906 256.952C72.5057 256.944 72.5202 256.935 72.5352 256.926C72.5365 256.926 72.5372 256.925 72.5385 256.924C72.5438 256.922 72.5483 256.919 72.5529 256.916L72.5542 256.915C72.5641 256.909 72.5739 256.903 72.5844 256.898C72.5851 256.898 72.5851 256.898 72.5857 256.897L72.5988 256.889C72.6008 256.888 72.6021 256.888 72.6034 256.886C72.6178 256.878 72.6316 256.87 72.6454 256.863L72.6506 256.859C72.6552 256.857 72.6592 256.855 72.6631 256.852C72.6651 256.851 72.667 256.849 72.669 256.849C72.6828 256.842 72.6965 256.833 72.7103 256.825C72.7116 256.824 72.7136 256.823 72.7155 256.822C72.7201 256.819 72.7241 256.817 72.728 256.815C72.73 256.814 72.7313 256.813 72.7332 256.812C72.7411 256.808 72.7496 256.803 72.7575 256.798C72.7588 256.797 72.7614 256.796 72.7627 256.795C72.766 256.793 72.7706 256.791 72.7745 256.789C72.7772 256.787 72.7785 256.787 72.7811 256.785C72.785 256.783 72.789 256.781 72.7929 256.778C72.7949 256.777 72.7968 256.776 72.7988 256.775C72.806 256.771 72.8132 256.766 72.8204 256.762C72.8231 256.762 72.825 256.76 72.8277 256.759C72.8316 256.756 72.8355 256.754 72.8395 256.752C72.8414 256.751 72.8447 256.749 72.8467 256.748C72.8506 256.746 72.8546 256.743 72.8585 256.741C72.8605 256.74 72.8624 256.739 72.8644 256.737C72.8716 256.735 72.8781 256.73 72.8854 256.727C72.8886 256.725 72.8906 256.724 72.8939 256.722C72.8978 256.72 72.9011 256.718 72.9044 256.715C72.907 256.714 72.9096 256.713 72.9116 256.711C72.9188 256.708 72.9267 256.703 72.9339 256.699C72.9358 256.698 72.9378 256.697 72.9398 256.696C72.9437 256.694 72.947 256.692 72.9509 256.69C72.9536 256.688 72.9568 256.686 72.9595 256.685L72.9699 256.68C72.9732 256.678 72.9765 256.676 72.9804 256.674C72.985 256.671 72.9903 256.668 72.9949 256.665C72.9981 256.663 73.0027 256.661 73.006 256.659C73.0093 256.657 73.0119 256.656 73.0152 256.654C73.0185 256.653 73.0237 256.65 73.027 256.648C73.0296 256.646 73.0322 256.645 73.0348 256.643C73.0408 256.64 73.0467 256.637 73.0526 256.633C73.0552 256.632 73.0578 256.631 73.0598 256.629C73.0644 256.627 73.0683 256.625 73.0722 256.623C73.0755 256.621 73.0781 256.619 73.0808 256.618C73.0847 256.616 73.0893 256.614 73.0932 256.612C73.0958 256.61 73.0985 256.608 73.1011 256.607C73.107 256.604 73.1129 256.6 73.1194 256.597C73.1214 256.596 73.124 256.595 73.126 256.593C73.1312 256.591 73.1345 256.589 73.1391 256.586C73.1417 256.585 73.1437 256.583 73.1463 256.582C73.1516 256.58 73.1575 256.576 73.1627 256.573C73.1647 256.572 73.166 256.572 73.1673 256.571L73.1857 256.561C73.1876 256.56 73.1902 256.559 73.1922 256.557C73.1975 256.555 73.2014 256.553 73.206 256.55C73.208 256.549 73.2106 256.547 73.2125 256.546C73.2184 256.543 73.2257 256.54 73.2316 256.536C73.2335 256.535 73.2355 256.534 73.2374 256.533L73.2591 256.521C73.2637 256.519 73.2683 256.517 73.2722 256.515C73.2742 256.513 73.2768 256.512 73.2794 256.511C73.286 256.507 73.2912 256.504 73.2984 256.5C73.2997 256.5 73.3024 256.498 73.3043 256.497L73.3188 256.49C73.3207 256.488 73.3233 256.487 73.326 256.486C73.3306 256.483 73.3365 256.48 73.3417 256.477C73.343 256.477 73.3443 256.476 73.345 256.475C73.3515 256.472 73.3587 256.468 73.3646 256.465C73.3666 256.464 73.3686 256.462 73.3712 256.462C73.3765 256.459 73.3804 256.457 73.3856 256.454C73.3876 256.453 73.3902 256.452 73.3915 256.451C73.3988 256.447 73.4053 256.444 73.4119 256.44L73.4125 256.439C73.4184 256.436 73.4256 256.433 73.4315 256.43C73.4342 256.429 73.4355 256.427 73.4381 256.426L73.4525 256.418C73.4545 256.418 73.4564 256.416 73.4591 256.415C73.4656 256.412 73.4715 256.408 73.4781 256.405L73.482 256.403C73.4879 256.401 73.4932 256.397 73.4984 256.395C73.501 256.393 73.503 256.392 73.505 256.391C73.5102 256.388 73.5174 256.385 73.5227 256.382C73.5233 256.381 73.524 256.381 73.5246 256.38C73.5319 256.378 73.5384 256.374 73.545 256.37C73.5469 256.369 73.5489 256.368 73.5502 256.368C73.5561 256.365 73.5607 256.362 73.5666 256.359C73.5679 256.358 73.5699 256.357 73.5718 256.356C73.5784 256.353 73.585 256.349 73.5915 256.346C73.5922 256.346 73.5922 256.346 73.5922 256.346C73.5994 256.342 73.6053 256.339 73.6125 256.335C73.6145 256.334 73.6158 256.334 73.6177 256.332C73.6223 256.33 73.6282 256.327 73.6335 256.325C73.6348 256.324 73.6374 256.323 73.6387 256.322C73.6459 256.318 73.6525 256.315 73.659 256.311C73.6597 256.311 73.6604 256.311 73.661 256.31C73.6676 256.307 73.6735 256.304 73.68 256.3C73.6814 256.3 73.6833 256.298 73.6846 256.298C73.6912 256.295 73.6977 256.292 73.7036 256.289C73.7043 256.288 73.705 256.288 73.7056 256.288C73.7122 256.284 73.7194 256.28 73.7266 256.277C73.7279 256.276 73.7286 256.275 73.7305 256.275C73.7364 256.271 73.7417 256.27 73.7482 256.266C73.7495 256.266 73.7509 256.265 73.7515 256.264C73.7653 256.257 73.7803 256.249 73.7941 256.243C73.7954 256.242 73.7961 256.242 73.7974 256.241C73.8033 256.238 73.8105 256.234 73.8158 256.232L73.8656 256.207C73.8721 256.203 73.8794 256.199 73.8859 256.196H73.8866C73.8931 256.192 73.9017 256.189 73.9089 256.185C73.9089 256.185 73.9095 256.184 73.9102 256.184C73.9167 256.181 73.9239 256.177 73.9312 256.174C73.9312 256.173 73.9318 256.173 73.9325 256.173C73.9469 256.165 73.962 256.159 73.9771 256.151C73.9777 256.151 73.9777 256.151 73.979 256.15C73.9856 256.147 73.9915 256.144 73.9987 256.14C73.9993 256.14 74.0007 256.139 74.0013 256.139C74.0157 256.132 74.0308 256.125 74.0453 256.117C74.0453 256.117 74.0466 256.117 74.0472 256.116C74.0689 256.106 74.0918 256.095 74.1141 256.083H74.1147C74.198 256.043 74.2819 256.002 74.3659 255.963C74.3665 255.963 74.3665 255.962 74.3672 255.962C76.0234 255.178 77.7813 254.575 79.6152 254.176H79.6165C79.6421 254.171 79.6663 254.166 79.6919 254.16C79.7096 254.156 79.726 254.153 79.7431 254.149H79.7437C79.7522 254.147 79.7601 254.146 79.7686 254.144C79.785 254.14 79.8021 254.137 79.8185 254.133H79.8211C79.846 254.128 79.8709 254.122 79.8958 254.117C79.8965 254.117 79.8965 254.117 79.8971 254.117C79.9135 254.114 79.9312 254.11 79.9476 254.107H79.9483C79.9562 254.105 79.964 254.104 79.9719 254.102H79.9745C79.9909 254.098 80.0066 254.095 80.023 254.091C80.0243 254.091 80.0256 254.091 80.0263 254.091C80.0342 254.089 80.042 254.088 80.0492 254.087H80.0506C80.0591 254.085 80.067 254.083 80.0755 254.081H80.0768C80.084 254.08 80.0919 254.078 80.0991 254.077C80.1011 254.076 80.1017 254.076 80.1037 254.076C80.1115 254.074 80.1181 254.073 80.126 254.072C80.1266 254.072 80.1273 254.071 80.1273 254.071C80.1358 254.07 80.143 254.068 80.1515 254.066C80.1529 254.066 80.1542 254.066 80.1555 254.066C80.162 254.064 80.1692 254.063 80.1758 254.062C80.1771 254.061 80.1791 254.061 80.1804 254.06C80.1961 254.058 80.2119 254.055 80.2276 254.052C80.2296 254.052 80.2315 254.051 80.2335 254.051C80.2394 254.05 80.246 254.049 80.2525 254.047C80.2538 254.047 80.2551 254.047 80.2571 254.047C80.265 254.045 80.2728 254.043 80.2801 254.042C80.2814 254.041 80.2827 254.041 80.284 254.041C80.2912 254.04 80.2971 254.039 80.3043 254.037C80.3063 254.037 80.3076 254.037 80.3102 254.036C80.3174 254.035 80.3227 254.034 80.3299 254.032H80.3338C80.3417 254.031 80.3489 254.03 80.3568 254.028C80.3587 254.028 80.3607 254.027 80.362 254.027C80.3679 254.026 80.3745 254.024 80.3804 254.024C80.3823 254.023 80.3849 254.022 80.3876 254.022C80.3954 254.02 80.402 254.02 80.4092 254.018H80.4099C80.4171 254.017 80.4256 254.015 80.4328 254.014C80.4354 254.013 80.4381 254.013 80.4407 254.012C80.4459 254.011 80.4512 254.01 80.4564 254.009C80.459 254.009 80.4617 254.009 80.4643 254.008C80.4708 254.007 80.4794 254.005 80.4866 254.005C80.4879 254.004 80.4899 254.004 80.4912 254.003C80.4971 254.003 80.503 254.001 80.5089 254C80.5122 253.999 80.5148 253.999 80.5181 253.999C80.5226 253.998 80.5279 253.997 80.5325 253.996C80.5351 253.996 80.5384 253.995 80.5417 253.994C80.5489 253.993 80.5554 253.992 80.5627 253.99C80.5659 253.99 80.5686 253.99 80.5712 253.989C80.5764 253.988 80.5797 253.988 80.5849 253.986C80.5882 253.986 80.5922 253.985 80.5954 253.984C80.5994 253.984 80.6046 253.983 80.6085 253.982C80.6138 253.982 80.6184 253.98 80.6236 253.98C80.6289 253.979 80.6328 253.978 80.6381 253.978C80.6426 253.977 80.6466 253.977 80.6505 253.976C80.6538 253.975 80.6571 253.975 80.6603 253.974C80.6643 253.973 80.6682 253.973 80.6728 253.972C80.6767 253.971 80.68 253.971 80.684 253.97C80.6905 253.969 80.6971 253.967 80.7036 253.966C80.7076 253.965 80.7108 253.965 80.7148 253.964C80.7187 253.963 80.7233 253.963 80.7272 253.962C80.7305 253.961 80.7331 253.961 80.7371 253.961C80.7416 253.96 80.7449 253.959 80.7495 253.958C80.7548 253.958 80.762 253.956 80.7672 253.956C80.7711 253.955 80.7758 253.954 80.7803 253.953L80.7915 253.951C80.7961 253.95 80.8 253.95 80.8039 253.95C80.8072 253.949 80.8098 253.949 80.8131 253.948C80.8223 253.946 80.8315 253.945 80.8406 253.944C80.842 253.943 80.8439 253.943 80.8446 253.943C80.8492 253.942 80.8538 253.941 80.8584 253.941C80.8616 253.94 80.8643 253.94 80.8675 253.939C80.8721 253.939 80.8767 253.938 80.8806 253.937C80.8839 253.937 80.8852 253.936 80.8885 253.936C80.897 253.934 80.9056 253.933 80.9141 253.931C80.9174 253.931 80.9187 253.931 80.9213 253.93C80.9259 253.929 80.9305 253.929 80.9351 253.928C80.9384 253.927 80.941 253.927 80.9443 253.927C80.9488 253.925 80.9528 253.925 80.958 253.924H80.96C80.9705 253.923 80.981 253.921 80.9915 253.92C80.9934 253.919 80.9954 253.919 80.998 253.918C81.0026 253.918 81.0078 253.917 81.0131 253.916C81.0151 253.916 81.017 253.916 81.019 253.915C81.036 253.912 81.0531 253.91 81.0695 253.907C81.0708 253.907 81.0721 253.906 81.0734 253.906C81.0793 253.906 81.0846 253.904 81.0898 253.904C81.0905 253.904 81.0931 253.903 81.0938 253.903C81.1115 253.901 81.1285 253.898 81.1462 253.895H81.1495C81.1678 253.892 81.1862 253.889 81.2052 253.887C81.2111 253.885 81.2177 253.885 81.2236 253.884L81.2242 253.883C81.3075 253.871 81.3908 253.86 81.474 253.848L81.0295 250.602ZM107.691 250.345H94.5777V253.621H107.691V250.345ZM133.918 250.345H120.805V253.621H133.918V250.345ZM160.145 250.345H147.032V253.621H160.145V250.345ZM186.372 250.345H173.259V253.621H186.372V250.345ZM212.599 250.345H199.486V253.621H212.599V250.345ZM238.826 250.345H225.712V253.621H238.826V250.345ZM265.053 250.345H251.939V253.621H265.053V250.345ZM291.28 250.345H278.166V253.621H291.28V250.345ZM317.507 250.345H304.393V253.621H317.507V250.345Z" fill="#00B8E8"/>
<path d="M99.9745 279.867C99.9745 286.532 94.5685 291.936 87.8996 291.936C81.2314 291.936 75.826 286.532 75.826 279.867C75.826 273.202 81.2314 267.799 87.8996 267.799C94.5685 267.799 99.9745 273.202 99.9745 279.867Z" fill="#00B8E8"/>
<path d="M94.3613 279.867C94.3613 283.433 91.4685 286.325 87.9003 286.325C84.3321 286.325 81.4393 283.433 81.4393 279.867C81.4393 276.301 84.3321 273.41 87.9003 273.41C91.4685 273.41 94.3613 276.301 94.3613 279.867Z" fill="#626680"/>
<path d="M137.816 279.867C137.816 286.532 132.41 291.936 125.741 291.936C119.073 291.936 113.666 286.532 113.666 279.867C113.666 273.202 119.073 267.799 125.741 267.799C132.41 267.799 137.816 273.202 137.816 279.867Z" fill="#00B8E8"/>
<path d="M132.203 279.867C132.203 283.433 129.31 286.325 125.742 286.325C122.174 286.325 119.281 283.433 119.281 279.867C119.281 276.301 122.174 273.41 125.742 273.41C129.31 273.41 132.203 276.301 132.203 279.867Z" fill="#626680"/>
<path d="M175.657 279.867C175.657 286.532 170.251 291.936 163.582 291.936C156.914 291.936 151.509 286.532 151.509 279.867C151.509 273.202 156.914 267.799 163.582 267.799C170.251 267.799 175.657 273.202 175.657 279.867Z" fill="#00B8E8"/>
<path d="M170.044 279.867C170.044 283.433 167.151 286.325 163.583 286.325C160.015 286.325 157.122 283.433 157.122 279.867C157.122 276.301 160.015 273.41 163.583 273.41C167.151 273.41 170.044 276.301 170.044 279.867Z" fill="#626680"/>
<path d="M213.499 279.867C213.499 286.532 208.092 291.936 201.424 291.936C194.755 291.936 189.349 286.532 189.349 279.867C189.349 273.202 194.755 267.799 201.424 267.799C208.092 267.799 213.499 273.202 213.499 279.867Z" fill="#00B8E8"/>
<path d="M207.885 279.867C207.885 283.433 204.992 286.325 201.424 286.325C197.856 286.325 194.963 283.433 194.963 279.867C194.963 276.301 197.856 273.41 201.424 273.41C204.992 273.41 207.885 276.301 207.885 279.867Z" fill="#626680"/>
<path d="M251.339 279.867C251.339 286.532 245.933 291.936 239.264 291.936C232.596 291.936 227.19 286.532 227.19 279.867C227.19 273.202 232.596 267.799 239.264 267.799C245.933 267.799 251.339 273.202 251.339 279.867Z" fill="#00B8E8"/>
<path d="M245.726 279.867C245.726 283.433 242.833 286.325 239.265 286.325C235.696 286.325 232.804 283.433 232.804 279.867C232.804 276.301 235.696 273.41 239.265 273.41C242.833 273.41 245.726 276.301 245.726 279.867Z" fill="#626680"/>
<path d="M289.18 279.867C289.18 286.532 283.774 291.936 277.106 291.936C270.437 291.936 265.031 286.532 265.031 279.867C265.031 273.202 270.437 267.799 277.106 267.799C283.774 267.799 289.18 273.202 289.18 279.867Z" fill="#00B8E8"/>
<path d="M283.567 279.867C283.567 283.433 280.674 286.325 277.106 286.325C273.537 286.325 270.645 283.433 270.645 279.867C270.645 276.301 273.537 273.41 277.106 273.41C280.674 273.41 283.567 276.301 283.567 279.867Z" fill="#626680"/>
<path d="M327.021 279.867C327.021 286.532 321.615 291.936 314.946 291.936C308.278 291.936 302.872 286.532 302.872 279.867C302.872 273.202 308.278 267.799 314.946 267.799C321.615 267.799 327.021 273.202 327.021 279.867Z" fill="#00B8E8"/>
<path d="M321.407 279.867C321.407 283.433 318.515 286.325 314.946 286.325C311.378 286.325 308.485 283.433 308.485 279.867C308.485 276.301 311.378 273.41 314.946 273.41C318.515 273.41 321.407 276.301 321.407 279.867Z" fill="#626680"/>
<path d="M83.3828 232.04H118.62V250.539H83.3828V232.04Z" fill="#B2B5C1"/>
<path d="M147.984 232.04H183.221V250.539H147.984V232.04Z" fill="#626680"/>
<path d="M212.585 232.04H247.823V250.539H212.585V232.04Z" fill="#B2B5C1"/>
<path d="M277.187 232.04H312.423V250.539H277.187V232.04Z" fill="#626680"/>
</svg>
